<svg width="10579" height="2500" viewBox="0 0 10579 2500" fill="none" xmlns="http://www.w3.org/2000/svg">
<g clip-path="url(#clip0_37_2)">
<path d="M1.62354e-06 1331.76C2.56199 1973.37 524.979 2498.7 1166.96 2498.7C1810.97 2497.91 2332.91 1976.16 2333.93 1332.11V1166.61C2335.83 796.157 2738.06 566.715 3057.91 753.616C3107.12 782.369 3150.82 819.627 3187 863.657H3941.65C3803.78 354.421 3341.98 0.619835 2814.42 0C2170.39 1.03306 1648.62 522.975 1647.83 1166.96V1331.76C1647.42 1597.25 1432.07 1812.23 1166.59 1812.23C901.384 1811.84 686.508 1596.96 686.116 1331.76C686.118 1313.7 682.565 1295.83 675.658 1279.15C668.751 1262.47 658.626 1247.32 645.861 1234.55C633.096 1221.79 617.942 1211.66 601.263 1204.76C584.585 1197.85 566.709 1194.29 548.657 1194.3H137.087C100.693 1194.39 65.8224 1208.91 40.1231 1234.68C14.4238 1260.45 -0.0055883 1295.36 1.62354e-06 1331.76ZM4465.54 2498.7C3938.55 2496.74 3477.73 2143.18 3339.4 1634.69H4092.93C4324.92 1922.09 4780.99 1850.6 4913.86 1506.01C4935.26 1450.54 4946.16 1391.57 4946.01 1332.11V1166.61C4947 522.583 5468.95 0.785124 6112.98 0C6748.41 0 7266.47 510.393 7279.59 1142.17L7283.22 1331.76C7285.12 1702.21 7687.36 1931.63 8007.21 1744.77C8056.42 1716.01 8100.12 1678.73 8136.3 1634.69H8890.95C8753.26 2143.95 8291.61 2497.95 7764.09 2498.72C7122.09 2498.72 6599.67 1973.02 6597.13 1332.11L6593.47 1160.76V1153.47C6585.79 893.574 6373 686.756 6112.98 686.467C5847.77 686.88 5632.89 901.777 5632.5 1166.96V1331.76C5631.67 1975.93 5109.67 2497.91 4465.54 2498.7ZM9038.97 864.008C9270.93 576.674 9727 648.161 9859.9 992.727C9881.33 1048.31 9892.23 1107.39 9892.05 1166.96C9892.04 1185.01 9895.6 1202.89 9902.5 1219.56C9909.41 1236.24 9919.53 1251.39 9932.29 1264.15C9945.06 1276.91 9960.21 1287.04 9976.89 1293.94C9993.56 1300.85 10011.4 1304.4 10029.5 1304.4H10441.4C10477.8 1304.31 10512.7 1289.79 10538.4 1264.03C10564.1 1238.26 10578.5 1203.35 10578.5 1166.96C10577.7 522.81 10055.7 0.826446 9411.55 0C8883.86 0.661157 8422.03 354.649 8284.32 864.008H9038.97Z" fill="black"/>
</g>
<defs>
<clipPath id="clip0_37_2">
<rect width="10578.5" height="2500" fill="white"/>
</clipPath>
</defs>
</svg>
