<svg width="64" height="64" viewBox="0 0 64 64" fill="none" xmlns="http://www.w3.org/2000/svg">
<g clip-path="url(#clip0_51_11)">
<path d="M32 64C49.6731 64 64 49.6731 64 32C64 14.3269 49.6731 0 32 0C14.3269 0 0 14.3269 0 32C0 49.6731 14.3269 64 32 64Z" fill="#1F9751"/>
<path d="M26.9477 28.4346H32.3372C32.909 28.4346 33.4573 28.2075 33.8616 27.8033C34.2659 27.3991 34.493 26.8509 34.493 26.2792C34.493 25.7076 34.2659 25.1594 33.8616 24.7552C33.4573 24.351 32.909 24.1239 32.3372 24.1239H30.1814V23.0462C30.1814 22.4746 29.9543 21.9263 29.55 21.5221C29.1457 21.1179 28.5974 20.8908 28.0256 20.8908C27.4539 20.8908 26.9056 21.1179 26.5013 21.5221C26.097 21.9263 25.8698 22.4746 25.8698 23.0462V24.2317C24.5601 24.4976 23.3958 25.2406 22.6031 26.3165C21.8104 27.3923 21.4458 28.7243 21.5802 30.0538C21.7145 31.3833 22.3381 32.6155 23.33 33.5111C24.3219 34.4068 25.6112 34.902 26.9477 34.9007H29.1035C29.3894 34.9007 29.6636 35.0142 29.8657 35.2163C30.0678 35.4184 30.1814 35.6925 30.1814 35.9784C30.1814 36.2642 30.0678 36.5383 29.8657 36.7404C29.6636 36.9425 29.3894 37.0561 29.1035 37.0561H23.7141C23.1423 37.0561 22.594 37.2831 22.1897 37.6873C21.7854 38.0915 21.5583 38.6398 21.5583 39.2114C21.5583 39.7831 21.7854 40.3313 22.1897 40.7355C22.594 41.1397 23.1423 41.3668 23.7141 41.3668H25.8698V42.4445C25.8698 43.0161 26.097 43.5643 26.5013 43.9685C26.9056 44.3728 27.4539 44.5998 28.0256 44.5998C28.5974 44.5998 29.1457 44.3728 29.55 43.9685C29.9543 43.5643 30.1814 43.0161 30.1814 42.4445V41.259C31.4913 40.9931 32.6555 40.2501 33.4482 39.1742C34.2409 38.0983 34.6054 36.7663 34.4712 35.4369C34.3368 34.1074 33.7132 32.8751 32.7213 31.9795C31.7294 31.0839 30.44 30.5886 29.1035 30.59H26.9477C26.6619 30.59 26.3877 30.4764 26.1855 30.2743C25.9834 30.0722 25.8698 29.7981 25.8698 29.5123C25.8698 29.2264 25.9834 28.9523 26.1855 28.7502C26.3877 28.5481 26.6619 28.4346 26.9477 28.4346ZM51.7393 31.6677H45.2719V12.2694C45.2734 11.8896 45.1745 11.5162 44.9853 11.1869C44.796 10.8576 44.523 10.5841 44.194 10.3942C43.8663 10.205 43.4946 10.1055 43.1162 10.1055C42.7377 10.1055 42.366 10.205 42.0383 10.3942L35.5709 14.1014L29.1035 10.3942C28.7758 10.205 28.404 10.1055 28.0256 10.1055C27.6472 10.1055 27.2755 10.205 26.9477 10.3942L20.4804 14.1014L14.013 10.3942C13.6853 10.205 13.3135 10.1055 12.9351 10.1055C12.5567 10.1055 12.185 10.205 11.8572 10.3942C11.5282 10.5841 11.2553 10.8576 11.066 11.1869C10.8767 11.5162 10.7778 11.8896 10.7793 12.2694V46.7552C10.7793 48.4701 11.4607 50.1148 12.6736 51.3274C13.8864 52.54 15.5314 53.2213 17.2467 53.2213H47.4277C49.143 53.2213 50.788 52.54 52.0008 51.3274C53.2137 50.1148 53.8951 48.4701 53.8951 46.7552V33.823C53.8951 33.2514 53.668 32.7031 53.2637 32.2989C52.8594 31.8947 52.3111 31.6677 51.7393 31.6677ZM17.2467 48.9106C16.6749 48.9106 16.1266 48.6835 15.7223 48.2792C15.3181 47.875 15.0909 47.3268 15.0909 46.7552V15.9982L19.4025 18.4553C19.7352 18.6291 20.105 18.7198 20.4804 18.7198C20.8557 18.7198 21.2255 18.6291 21.5583 18.4553L28.0256 14.748L34.493 18.4553C34.8257 18.6291 35.1955 18.7198 35.5709 18.7198C35.9463 18.7198 36.3161 18.6291 36.6488 18.4553L40.9604 15.9982V46.7552C40.9662 47.4904 41.0975 48.2194 41.3484 48.9106H17.2467ZM49.5835 46.7552C49.5835 47.3268 49.3564 47.875 48.9521 48.2792C48.5478 48.6835 47.9995 48.9106 47.4277 48.9106C46.856 48.9106 46.3077 48.6835 45.9034 48.2792C45.499 47.875 45.2719 47.3268 45.2719 46.7552V35.9784H49.5835V46.7552Z" fill="white"/>
</g>
<defs>
<clipPath id="clip0_51_11">
<rect width="64" height="64" fill="white"/>
</clipPath>
</defs>
</svg>
