<svg width="64" height="64" viewBox="0 0 64 64" fill="none" xmlns="http://www.w3.org/2000/svg">
<path d="M38 11H26V64H38V11Z" fill="white"/>
<path d="M47 31H17V42H47V31Z" fill="white"/>
<path d="M47 12H17V26H47V12Z" fill="white"/>
<path fill-rule="evenodd" clip-rule="evenodd" d="M64 32.1787C64 48.088 52.4453 61.3173 37.3333 64V40.888H45.3333V32H37.3333V24.888C37.3333 16.888 32.1787 12.4453 24.888 12.4453C22.5787 12.4453 20.088 12.8 17.7787 13.1547V21.3333H21.8667C25.7787 21.3333 26.6667 23.288 26.6667 25.7787V32H18.1333L19.5547 40.888H26.6667V64C11.5547 61.3173 0 48.0907 0 32.1787C0 14.48 14.4 0 32 0C49.6 0 64 14.48 64 32.1787Z" fill="#0080FF"/>
</svg>
