<svg width="64" height="64" viewBox="0 0 64 64" fill="none" xmlns="http://www.w3.org/2000/svg">
<rect width="64" height="64" rx="32" fill="black"/>
<path d="M50.3333 14H13.6667C13.2246 14 12.8007 14.1772 12.4882 14.4926C12.1756 14.808 12 15.2358 12 15.6818V47.6364C12 48.5285 12.3512 49.384 12.9763 50.0148C13.6014 50.6456 14.4493 51 15.3333 51H23.6667C24.5507 51 25.3986 50.6456 26.0237 50.0148C26.6488 49.384 27 48.5285 27 47.6364V37.5455H37V40.9091C37 41.8012 37.3512 42.6567 37.9763 43.2875C38.6014 43.9183 39.4493 44.2727 40.3333 44.2727H48.6667C49.5507 44.2727 50.3986 43.9183 51.0237 43.2875C51.6488 42.6567 52 41.8012 52 40.9091V15.6818C52 15.2358 51.8244 14.808 51.5118 14.4926C51.1993 14.1772 50.7754 14 50.3333 14ZM23.6667 47.6364H15.3333V30.8182H23.6667V47.6364ZM23.6667 27.4545H15.3333V17.3636H23.6667V27.4545ZM37 34.1818H27V17.3636H37V34.1818ZM48.6667 40.9091H40.3333V30.8182H48.6667V40.9091ZM48.6667 27.4545H40.3333V17.3636H48.6667V27.4545Z" fill="white"/>
</svg>
