<svg width="64" height="64" viewBox="0 0 64 64" fill="none" xmlns="http://www.w3.org/2000/svg">
<circle cx="32" cy="32" r="32" fill="#FF00C6"/>
<g clip-path="url(#clip0_58_8)">
<path d="M11 44.2857H53V49H11V44.2857ZM11 30.1429H18V37.2143H11V30.1429ZM22.6667 30.1429H29.6667V37.2143H22.6667V30.1429ZM11 16H18V23.0714H11V16ZM34.3333 16H41.3333V23.0714H34.3333V16ZM46 16H53V23.0714H46V16ZM34.3333 30.1429H41.3333V37.2143H34.3333V30.1429ZM46 30.1429H53V37.2143H46V30.1429ZM22.6667 16H29.6667V23.0714H22.6667V16Z" fill="white"/>
</g>
<defs>
<clipPath id="clip0_58_8">
<rect width="42" height="33" fill="white" transform="translate(11 16)"/>
</clipPath>
</defs>
</svg>
