<svg width="64" height="64" viewBox="0 0 64 64" fill="none" xmlns="http://www.w3.org/2000/svg">
<g clip-path="url(#clip0_51_8)">
<path d="M32 64C49.6731 64 64 49.6731 64 32C64 14.3269 49.6731 0 32 0C14.3269 0 0 14.3269 0 32C0 49.6731 14.3269 64 32 64Z" fill="#9747FF"/>
<path d="M26.0938 11C28.6285 11 30.6875 13.0565 30.6875 15.5938V48.4062C30.6875 50.941 28.6285 53 26.0938 53C23.723 53 21.7707 51.2035 21.5246 48.8902C21.098 49.0051 20.6469 49.0625 20.1875 49.0625C17.2877 49.0625 14.9375 46.7082 14.9375 43.8125C14.9375 43.2055 15.0417 42.6148 15.232 42.0734C12.7579 41.1383 11 38.743 11 35.9375C11 33.3207 12.5348 31.0566 14.7546 30.0066C14.0475 29.1125 13.625 27.9066 13.625 26.75C13.625 24.2316 15.3961 22.1316 17.7602 21.6148C17.6314 21.1637 17.5625 20.6797 17.5625 20.1875C17.5625 17.7315 19.2523 15.6692 21.5246 15.0958C21.7707 12.7932 23.723 11 26.0938 11ZM42.4754 15.0958C44.7477 15.6692 46.4375 17.7315 46.4375 20.1875C46.4375 20.6797 46.3719 21.1637 46.2406 21.6148C48.6031 22.1316 50.375 24.2316 50.375 26.75C50.375 27.9066 49.9566 29.1125 49.243 30.0066C51.466 31.0566 53 33.3207 53 35.9375C53 38.743 51.2445 41.1383 48.7672 42.0734C48.9559 42.6148 49.0625 43.2055 49.0625 43.8125C49.0625 46.7082 46.7082 49.0625 43.8125 49.0625C43.3531 49.0625 42.902 49.0051 42.4754 48.8902C42.2293 51.2035 40.277 53 37.9062 53C35.3715 53 33.3125 50.941 33.3125 48.4062V15.5938C33.3125 13.0565 35.3715 11 37.9062 11C40.277 11 42.2293 12.7932 42.4754 15.0958Z" fill="white"/>
</g>
<defs>
<clipPath id="clip0_51_8">
<rect width="64" height="64" fill="white"/>
</clipPath>
</defs>
</svg>
