<svg width="64" height="64" viewBox="0 0 64 64" fill="none" xmlns="http://www.w3.org/2000/svg">
<g clip-path="url(#clip0_51_2)">
<path d="M32 64C49.6731 64 64 49.6731 64 32C64 14.3269 49.6731 0 32 0C14.3269 0 0 14.3269 0 32C0 49.6731 14.3269 64 32 64Z" fill="#9747FF"/>
<path d="M31.5098 11C30.5911 11 29.6814 11.181 28.8326 11.5325C27.9838 11.8841 27.2126 12.3994 26.563 13.049C25.9134 13.6986 25.3981 14.4698 25.0465 15.3186C24.6949 16.1674 24.514 17.0771 24.514 17.9958C24.514 18.9145 24.6949 19.8242 25.0465 20.673C25.3981 21.5218 25.9134 22.293 26.563 22.9426C27.2126 23.5922 27.9838 24.1075 28.8326 24.4591C29.6814 24.8106 30.5911 24.9916 31.5098 24.9916C33.3652 24.9916 35.1446 24.2545 36.4566 22.9426C37.7685 21.6306 38.5056 19.8512 38.5056 17.9958C38.5056 16.1404 37.7685 14.361 36.4566 13.049C35.1446 11.7371 33.3652 11 31.5098 11ZM47.2661 14.4944C45.8731 14.4944 44.5372 15.0477 43.5523 16.0327C42.5674 17.0177 42.014 18.3535 42.014 19.7465C42.014 21.1394 42.5674 22.4753 43.5523 23.4603C44.5372 24.4453 45.8731 24.9986 47.2661 24.9986C48.659 24.9986 49.995 24.4453 50.9799 23.4603C51.9648 22.4753 52.5182 21.1394 52.5182 19.7465C52.5182 18.3535 51.9648 17.0177 50.9799 16.0327C49.995 15.0477 48.659 14.4944 47.2661 14.4944ZM15.7535 14.4944C14.3606 14.4944 13.0247 15.0477 12.0397 16.0327C11.0547 17.0177 10.5014 18.3535 10.5014 19.7465C10.5014 21.1394 11.0547 22.4753 12.0397 23.4603C13.0247 24.4453 14.3606 24.9986 15.7535 24.9986C17.1464 24.9986 18.4823 24.4453 19.4673 23.4603C20.4522 22.4753 21.0056 21.1394 21.0056 19.7465C21.0056 18.3535 20.4522 17.0177 19.4673 16.0327C18.4823 15.0477 17.1464 14.4944 15.7535 14.4944ZM21.0056 31.9769C21.012 31.0525 21.3838 30.1682 22.0397 29.5168C22.6957 28.8655 23.5826 28.5 24.507 28.5H38.5126C39.4412 28.5 40.3318 28.8689 40.9885 29.5255C41.6451 30.1822 42.014 31.0727 42.014 32.0014V42.5056C42.0137 43.6075 41.8413 44.7027 41.5028 45.7513C40.7275 48.1278 39.1304 50.15 36.9983 51.4548C34.8662 52.7596 32.3388 53.2616 29.8698 52.8706C27.4009 52.4797 25.1523 51.2214 23.5276 49.3216C21.903 47.422 21.0088 45.0053 21.0056 42.5056V31.9769ZM17.5042 32.0014C17.5042 30.7234 17.8439 29.5294 18.4426 28.5H10.5014C9.57277 28.5 8.68218 28.8689 8.02553 29.5255C7.3689 30.1822 7 31.0727 7 32.0014V40.7549C6.99952 42.188 7.35093 43.5993 8.02336 44.8649C8.69579 46.1306 9.66868 47.2116 10.8566 48.0134C12.0445 48.8151 13.4111 49.3129 14.8364 49.4631C16.2616 49.6133 17.7019 49.4112 19.0308 48.8746C18.023 46.9018 17.4997 44.7174 17.5042 42.5021V32.0014ZM45.5154 32.0014V42.5056C45.5154 44.799 44.9656 46.9629 43.9888 48.8746C45.3177 49.4112 46.758 49.6133 48.1832 49.4631C49.6085 49.3129 50.9751 48.8151 52.163 48.0134C53.3509 47.2116 54.3238 46.1306 54.9962 44.8649C55.6686 43.5993 56.02 42.188 56.0196 40.7549V32.0014C56.0196 31.0727 55.6507 30.1822 54.994 29.5255C54.3374 28.8689 53.4468 28.5 52.5182 28.5H44.577C45.1723 29.5294 45.5154 30.7234 45.5154 32.0014Z" fill="white"/>
</g>
<defs>
<clipPath id="clip0_51_2">
<rect width="64" height="64" fill="white"/>
</clipPath>
</defs>
</svg>
