<svg width="20" height="20" viewBox="0 0 20 20" fill="none" xmlns="http://www.w3.org/2000/svg">
<rect width="20" height="20" fill="black"/>
<path d="M5.176 18V1.452H10.972C11.756 1.452 12.4 1.564 12.904 1.788C13.4267 2.012 13.8093 2.35733 14.052 2.824C14.3133 3.272 14.444 3.84133 14.444 4.532V14.444C14.444 15.3587 14.2853 16.0773 13.968 16.6C13.6507 17.1227 13.1933 17.4867 12.596 17.692C12.0173 17.8973 11.3267 18 10.524 18H5.176ZM8.564 16.32H9.992C10.3653 16.32 10.6547 16.208 10.86 15.984C11.084 15.76 11.196 15.34 11.196 14.724V4.896C11.196 4.28 11.084 3.86 10.86 3.636C10.6547 3.412 10.3653 3.3 9.992 3.3H8.564V16.32Z" fill="white"/>
</svg>
