<svg width="2127" height="2500" viewBox="0 0 2127 2500" fill="none" xmlns="http://www.w3.org/2000/svg">
<g clip-path="url(#clip0_40_23)">
<path d="M2126.25 806.478L2049 598.007L2102.16 478.405C2108.8 462.625 2105.48 445.183 2093.85 432.724L1948.51 285.714C1884.55 221.761 1789.87 199.336 1704.32 229.236L1663.62 243.355L1441.03 2.49169L1064.78 0H1062.29L683.555 3.32226L461.794 245.847L421.927 231.728C335.548 200.997 240.033 223.422 176.08 289.037L28.2392 438.538C18.2724 448.505 15.7807 462.625 20.7641 475.083L76.412 599.668L0 808.14L49.8339 996.678L275.748 1854.65C301.495 1953.49 361.296 2039.87 445.183 2099.67C445.183 2099.67 719.269 2293.19 989.203 2468.44C1013.29 2484.22 1038.21 2495.02 1064.78 2495.02C1091.36 2495.02 1116.28 2484.22 1140.37 2468.44C1444.35 2269.1 1684.39 2098.84 1684.39 2098.84C1767.44 2039.04 1827.24 1952.66 1852.99 1853.82L2077.24 995.847L2126.25 806.478Z" fill="#F15A22"/>
<path opacity="0.15" d="M286.545 1891.2L0 826.412L83.887 617.94L25.7475 463.455L164.452 322.259C210.133 281.561 299.834 267.442 341.362 291.528L558.14 416.113L840.532 481.728L1060.63 390.365L1078.9 2281.56C1075.58 2553.99 1093.02 2524.92 892.857 2396.18L398.671 2064.78C345.515 2014.12 304.817 1956.81 286.545 1891.2Z" fill="url(#paint0_linear_40_23)"/>
<path opacity="0.4" d="M1679.4 2095.07L1259.14 2382.44C1142.03 2446.4 1085.55 2509.52 1076.41 2478.79C1068.94 2454.7 1074.75 2384.1 1072.26 2274.47L1067.28 424.801C1068.11 406.528 1080.56 375.797 1102.16 379.12L1316.44 443.904L1625.41 395.731L1829.73 245.399C1851.33 228.787 1882.89 230.448 1902.82 249.551L2085.55 423.97C2102.16 441.412 2102.99 475.465 2093.02 497.06L2042.36 590.914L2126.25 807.691L1837.21 1882.44C1792.36 2016.16 1729.24 2051.05 1679.4 2095.07Z" fill="url(#paint1_linear_40_23)"/>
<path d="M1112.96 1534.89C1102.99 1530.74 1092.19 1527.42 1088.87 1527.42H1062.29C1058.97 1527.42 1048.17 1530.74 1038.21 1534.89L930.232 1579.74C920.265 1583.9 903.654 1591.37 893.687 1596.35L730.897 1681.07C720.93 1686.05 720.099 1695.19 729.236 1701.84L872.923 1803.16C882.059 1809.81 896.179 1820.61 904.485 1828.08L968.438 1882.9C976.744 1890.37 990.033 1902 998.339 1909.48L1059.8 1964.29C1068.11 1971.77 1081.39 1971.77 1089.7 1964.29L1152.82 1909.48C1161.13 1902 1174.42 1890.37 1182.72 1882.9L1246.68 1827.25C1254.98 1819.78 1269.1 1808.98 1278.24 1802.33L1421.93 1700.17C1431.06 1693.53 1430.23 1684.39 1420.27 1679.41L1257.47 1596.35C1247.51 1591.37 1230.9 1583.9 1220.93 1579.74L1112.96 1534.89Z" fill="white"/>
<path d="M1892.13 843.497C1895.46 832.699 1895.46 828.547 1895.46 828.547C1895.46 817.749 1894.63 799.477 1892.97 788.679L1884.66 764.593C1879.68 754.626 1871.37 738.846 1864.73 729.709L1770.87 591.005C1765.06 581.869 1754.26 567.749 1746.79 558.613L1625.52 406.62C1618.88 398.314 1612.23 390.839 1611.4 391.669H1609.74C1609.74 391.669 1600.61 393.331 1589.81 394.992L1404.59 431.537C1393.8 434.028 1376.35 437.351 1365.56 439.012L1362.23 439.842C1351.44 441.503 1334 440.673 1323.2 437.351L1167.88 387.517C1157.08 384.194 1139.64 379.211 1129.68 376.719C1129.68 376.719 1098.11 369.244 1072.37 370.075C1046.62 370.075 1015.06 376.719 1015.06 376.719C1004.26 379.211 986.819 384.194 976.852 387.517L821.537 437.351C810.739 440.673 793.297 441.503 782.5 439.842L779.178 439.012C768.381 437.351 750.939 433.198 740.141 431.537L553.264 396.653C542.467 394.161 533.331 393.331 533.331 393.331H531.67C530.839 393.331 524.195 399.975 517.55 408.281L396.288 560.274C389.643 568.58 378.846 583.53 372.201 592.666L278.347 731.37C272.533 740.507 263.397 756.287 258.414 766.254L250.108 790.341C248.447 801.138 246.786 819.41 247.616 830.208C247.616 830.208 247.616 833.53 250.939 845.158C256.753 865.091 270.872 883.364 270.872 883.364C277.517 891.669 289.975 905.789 297.45 913.264L572.367 1205.62C579.842 1213.93 582.334 1228.88 578.181 1238.85L520.872 1374.23C516.719 1384.19 515.889 1400.81 520.042 1411.6L535.822 1453.96C549.111 1489.68 571.537 1521.24 601.437 1545.32L657.085 1590.17C665.391 1596.82 680.341 1599.31 690.307 1594.33L866.387 1510.44C876.354 1505.46 891.304 1495.49 899.61 1488.01L1025.86 1374.23C1044.13 1357.62 1044.96 1329.38 1028.35 1311.1L763.397 1132.53C754.261 1126.72 750.939 1113.43 755.922 1103.46L872.201 884.194C877.185 874.228 878.015 858.447 873.862 848.48L859.743 816.088C855.59 806.121 843.131 794.493 833.165 790.341L491.802 662.434C481.836 658.281 481.836 654.128 492.633 653.297L712.733 632.533C723.53 631.703 740.972 633.364 751.769 635.855L947.783 690.673C958.58 693.995 965.224 704.792 963.563 715.59L895.457 1088.51C893.796 1099.31 893.796 1114.26 896.288 1122.57C898.779 1130.87 909.577 1138.35 920.374 1140.84L1056.59 1169.91C1067.38 1172.4 1084.83 1172.4 1095.62 1169.91L1222.7 1140.84C1233.5 1138.35 1244.29 1130.04 1246.79 1122.57C1249.28 1115.09 1250.11 1099.31 1247.62 1088.51L1180.34 715.59C1178.68 704.792 1185.32 693.164 1196.12 690.673L1392.13 635.855C1402.93 632.533 1420.37 631.703 1431.17 632.533L1651.27 653.297C1662.07 654.128 1662.9 658.281 1652.1 662.434L1310.74 792.002C1300.77 796.155 1288.31 806.952 1284.16 817.749L1270.04 850.141C1265.89 860.108 1265.89 876.719 1271.7 885.855L1388.81 1105.12C1393.8 1115.09 1390.47 1127.55 1381.34 1134.19L1116.39 1313.6C1098.95 1331.04 1100.61 1360.11 1118.88 1376.72L1245.12 1490.51C1253.43 1497.98 1268.38 1507.95 1278.35 1512.1L1455.26 1595.99C1465.22 1600.97 1480.17 1598.48 1488.48 1591.84L1544.13 1546.15C1574.03 1522.07 1596.45 1490.51 1608.91 1454.79L1624.69 1412.43C1628.85 1402.47 1628.02 1385.03 1623.86 1375.06L1566.55 1239.68C1562.4 1229.71 1564.89 1214.76 1572.37 1206.45L1847.28 914.095C1854.76 905.789 1866.39 892.5 1873.86 884.194C1872.2 881.703 1887.15 863.43 1892.13 843.497Z" fill="white"/>
</g>
<defs>
<linearGradient id="paint0_linear_40_23" x1="0" y1="110885" x2="107995" y2="110885" gradientUnits="userSpaceOnUse">
<stop stop-color="white"/>
<stop offset="0.1413" stop-color="white" stop-opacity="0.958"/>
<stop offset="1" stop-color="white" stop-opacity="0.7"/>
</linearGradient>
<linearGradient id="paint1_linear_40_23" x1="1025.98" y1="112834" x2="106964" y2="112834" gradientUnits="userSpaceOnUse">
<stop stop-color="#F1F1F2"/>
<stop offset="0.09191" stop-color="#E4E5E6"/>
<stop offset="0.2357" stop-color="#D9DADB"/>
<stop offset="0.438" stop-color="#D2D4D5"/>
<stop offset="1" stop-color="#D0D2D3"/>
</linearGradient>
<clipPath id="clip0_40_23">
<rect width="2126.25" height="2500" fill="white"/>
</clipPath>
</defs>
</svg>
