<svg width="1667" height="2500" viewBox="0 0 1667 2500" fill="none" xmlns="http://www.w3.org/2000/svg">
<g clip-path="url(#clip0_40_15)">
<path d="M416.667 2500C646.667 2500 833.333 2313.33 833.333 2083.33V1666.67H416.667C186.667 1666.67 0 1853.33 0 2083.33C0 2313.33 186.667 2500 416.667 2500Z" fill="#0ACF83"/>
<path d="M0 1250C0 1020 186.667 833.333 416.667 833.333H833.333V1666.67H416.667C186.667 1666.67 0 1480 0 1250Z" fill="#A259FF"/>
<path d="M0 416.667C0 186.667 186.667 0 416.667 0H833.333V833.333H416.667C186.667 833.333 0 646.667 0 416.667Z" fill="#F24E1E"/>
<path d="M833.333 0H1250C1480 0 1666.67 186.667 1666.67 416.667C1666.67 646.667 1480 833.333 1250 833.333H833.333V0Z" fill="#FF7262"/>
<path d="M1666.67 1250C1666.67 1480 1480 1666.67 1250 1666.67C1020 1666.67 833.333 1480 833.333 1250C833.333 1020 1020 833.333 1250 833.333C1480 833.333 1666.67 1020 1666.67 1250Z" fill="#1ABCFE"/>
</g>
<defs>
<clipPath id="clip0_40_15">
<rect width="1666.67" height="2500" fill="white"/>
</clipPath>
</defs>
</svg>
