<svg width="2500" height="2500" viewBox="0 0 2500 2500" fill="none" xmlns="http://www.w3.org/2000/svg">
<g clip-path="url(#clip0_40_33)">
<path d="M495.107 1553.6L2020.74 1044.3C1990.25 853.643 1968.54 726.279 1943.36 629.082C1916.24 524.531 1894.75 496.562 1886.31 486.865C1856.89 453.204 1820.26 426.604 1779.15 409.043C1767.28 403.965 1733.98 392.168 1626.28 398.652C1512.32 405.527 1362.73 428.809 1125.84 466.318C889.023 503.818 739.512 527.969 629.062 556.562C524.57 583.682 496.514 605.244 486.816 613.691C453.207 643.134 426.634 679.743 409.053 720.82C403.975 732.686 392.168 765.977 398.662 873.73C405.537 987.647 428.828 1137.29 466.338 1374.12C476.816 1440.53 486.27 1499.92 495.107 1553.6Z" fill="url(#paint0_linear_40_33)"/>
<path d="M74.4631 1436.16C1.93384 977.959 -34.4138 748.857 44.2092 564.932C85.1992 468.993 147.284 383.526 225.85 314.883C376.465 183.379 605.537 147.129 1063.7 74.541C1522.01 1.85547 1751.1 -34.3848 1935.16 44.2188C2031.06 85.2052 2116.49 147.273 2185.11 225.811C2316.72 376.455 2352.98 605.557 2425.52 1063.84C2498.13 1522.04 2534.39 1751.21 2455.76 1935.07C2414.8 2031 2352.75 2116.46 2274.21 2185.11C2123.59 2316.69 1894.43 2352.95 1436.2 2425.54C978.037 2498.12 748.877 2534.38 564.981 2455.77C469.082 2414.78 383.65 2352.72 315.03 2274.18C183.408 2123.54 147.149 1894.43 74.5413 1436.16H74.4631ZM882.686 2249.88C1005.39 2242.46 1163.43 2217.7 1397.35 2180.64C1631.36 2143.61 1789.15 2118.3 1908.27 2087.43C2023.55 2057.51 2076.7 2028.36 2111.01 1998.36C2161.49 1954.23 2201.37 1899.29 2227.71 1837.63C2245.67 1795.75 2257 1736.21 2249.81 1617.29C2242.39 1494.61 2217.62 1336.53 2180.58 1102.59C2143.53 868.652 2118.27 710.732 2087.41 591.729C2057.47 476.396 2028.24 423.272 1998.31 388.965C1954.2 338.475 1899.27 298.574 1837.62 272.227C1795.72 254.258 1736.17 242.93 1617.21 250.107C1494.5 257.529 1336.54 282.305 1102.55 319.346C868.623 356.455 710.742 381.699 591.709 412.559C476.348 442.49 423.282 471.709 388.975 501.641C338.469 545.761 298.554 600.696 272.197 662.363C254.297 704.248 242.969 763.789 250.156 882.715C257.578 1005.47 282.285 1163.46 319.405 1397.4C356.455 1631.35 381.699 1789.27 412.569 1908.27C442.5 2023.6 471.651 2076.73 501.67 2111.04C545.787 2161.52 600.711 2201.42 662.363 2227.77C704.258 2245.74 763.731 2257.07 882.774 2249.88H882.686Z" fill="url(#paint1_linear_40_33)"/>
</g>
<defs>
<linearGradient id="paint0_linear_40_33" x1="58650.6" y1="8753.84" x2="79282.3" y2="137629" gradientUnits="userSpaceOnUse">
<stop stop-color="#66E3FF"/>
<stop offset="1" stop-color="#7064F9"/>
</linearGradient>
<linearGradient id="paint1_linear_40_33" x1="97930" y1="-0.00362458" x2="137625" y2="247953" gradientUnits="userSpaceOnUse">
<stop stop-color="#66E3FF"/>
<stop offset="1" stop-color="#7064F9"/>
</linearGradient>
<clipPath id="clip0_40_33">
<rect width="2500" height="2500" fill="white"/>
</clipPath>
</defs>
</svg>
