<svg width="2883" height="2500" viewBox="0 0 2883 2500" fill="none" xmlns="http://www.w3.org/2000/svg">
<g clip-path="url(#clip0_40_31)">
<path d="M2429.85 1701.66C2442.03 1694.66 2452.16 1684.59 2459.22 1672.44C2466.27 1660.3 2470.01 1646.51 2470.06 1632.47L2471.5 1169.03C2471.54 1154.98 2475.28 1141.2 2482.33 1129.05C2489.39 1116.9 2499.52 1106.83 2511.7 1099.83L2762.92 955.529C2775.09 948.536 2788.89 944.866 2802.93 944.889C2816.97 944.911 2830.76 948.625 2842.91 955.658C2855.07 962.691 2865.16 972.795 2872.17 984.958C2879.19 997.121 2882.88 1010.91 2882.88 1024.96V1867.5C2882.88 1881.59 2879.17 1895.43 2872.11 1907.62C2865.05 1919.81 2854.9 1929.92 2842.68 1936.94L1894.59 2481.5C1882.48 2488.45 1868.76 2492.12 1854.8 2492.13C1840.83 2492.15 1827.1 2488.51 1814.98 2481.58L1070.95 2056.01C1058.69 2049.01 1048.5 2038.9 1041.41 2026.69C1034.32 2014.49 1030.58 2000.62 1030.57 1986.51V1561.67C1030.57 1561.19 1031.14 1560.88 1031.62 1561.1C1032.02 1561.35 1032.58 1561.1 1032.58 1560.54V1560.07C1032.58 1559.75 1032.74 1559.43 1033.06 1559.27L1645.86 1207.23C1646.42 1206.9 1646.17 1206.03 1645.53 1206.03C1645.36 1206.03 1645.2 1205.96 1645.08 1205.84C1644.95 1205.72 1644.89 1205.55 1644.89 1205.38L1646.09 788.874C1646.15 774.789 1642.49 760.938 1635.49 748.719C1628.48 736.499 1618.38 726.344 1606.19 719.277C1594.01 712.21 1580.18 708.482 1566.09 708.468C1552.01 708.455 1538.17 712.157 1525.97 719.201L1070.54 981.644C1058.39 988.643 1044.61 992.327 1030.58 992.327C1016.55 992.327 1002.77 988.643 990.619 981.644L533.75 718.581C521.579 711.571 507.778 707.886 493.732 707.895C479.686 707.904 465.89 711.607 453.728 718.633C441.565 725.659 431.465 735.76 424.44 747.923C417.415 760.086 413.713 773.882 413.705 787.928V1540.7C413.716 1554.73 410.04 1568.52 403.045 1580.68C396.051 1592.84 385.984 1602.95 373.852 1610C361.72 1617.05 347.949 1620.79 333.919 1620.84C319.888 1620.89 306.091 1617.25 293.908 1610.29L40.3604 1465.32C28.0829 1458.3 17.8811 1448.16 10.7921 1435.93C3.70307 1423.7 -0.0204401 1409.8 8.43928e-05 1395.66L2.25234 79.8988C2.28826 65.8765 6.00558 52.1094 13.0324 39.9748C20.0593 27.8402 30.1494 17.7634 42.2932 10.7526C54.4371 3.74173 68.209 0.0425591 82.2314 0.0251285C96.2537 0.00769781 110.035 3.67262 122.196 10.6533L990.698 509.46C1002.83 516.43 1016.58 520.097 1030.58 520.097C1044.58 520.097 1058.33 516.43 1070.46 509.46L1938.7 10.6307C1950.89 3.63363 1964.69 -0.0361176 1978.74 -0.0101167C1992.79 0.0158842 2006.58 3.73672 2018.74 10.7789C2030.89 17.821 2040.98 27.9367 2047.99 40.1105C2055 52.2842 2058.68 66.0877 2058.67 80.1353V1396.21C2058.68 1410.28 2054.97 1424.12 2047.93 1436.31C2040.89 1448.5 2030.76 1458.62 2018.56 1465.64L1563.85 1727.51C1551.64 1734.55 1541.5 1744.69 1534.46 1756.91C1527.42 1769.12 1523.73 1782.98 1523.76 1797.07C1523.79 1811.17 1527.55 1825.01 1534.64 1837.19C1541.74 1849.38 1551.92 1859.47 1564.17 1866.45L1814.99 2009.25C1827.11 2016.14 1840.82 2019.76 1854.77 2019.73C1868.72 2019.7 1882.41 2016.03 1894.5 2009.08L2429.85 1701.66ZM2482.47 521.081C2482.48 535.244 2486.24 549.151 2493.38 561.384C2500.52 573.617 2510.78 583.737 2523.1 590.714C2535.43 597.69 2549.38 601.272 2563.54 601.096C2577.71 600.919 2591.57 596.989 2603.72 589.707L2843.96 445.563C2855.82 438.457 2865.64 428.402 2872.46 416.375C2879.28 404.349 2882.87 390.762 2882.88 376.937V83.1871C2882.86 69.0306 2879.08 55.1335 2871.94 42.9119C2864.79 30.6903 2854.54 20.581 2842.21 13.6141C2829.89 6.64716 2815.94 3.07161 2801.78 3.25178C2787.63 3.43196 2773.77 7.36141 2761.63 14.6397L2521.4 158.784C2509.53 165.89 2499.71 175.946 2492.89 187.975C2486.07 200.003 2482.48 213.593 2482.47 227.421V521.16V521.081Z" fill="#007FFF"/>
</g>
<defs>
<clipPath id="clip0_40_31">
<rect width="2882.88" height="2500" fill="white"/>
</clipPath>
</defs>
</svg>
