<svg width="1928" height="2500" viewBox="0 0 1928 2500" fill="none" xmlns="http://www.w3.org/2000/svg">
<g clip-path="url(#clip0_40_4)">
<path d="M1574.22 2321.57C1558.83 2434 1448.18 2522.16 1337.53 2491.39C1180.73 2448.79 999.081 2381.33 835.768 2368.91L584.887 2349.97C544.584 2347.13 506.707 2329.67 478.381 2300.86L46.438 1858.27C23.4969 1834.69 8.18053 1804.76 2.48098 1772.36C-3.21857 1739.96 0.962425 1706.6 14.4802 1676.61C14.4802 1676.61 280.745 1093.19 291.4 1063.02C300.866 1032.84 337.56 767.756 358.855 625.746C364.828 588.039 383.639 553.553 412.108 528.118L922.153 71.3104C938.958 56.236 958.666 44.7549 980.068 37.572C1001.47 30.3891 1024.11 27.6558 1046.61 29.54C1069.11 31.4241 1090.98 37.886 1110.89 48.5289C1130.8 59.1717 1148.32 73.7711 1162.39 91.4309L1591.97 633.434C1616 664.386 1628.93 702.528 1628.65 741.717C1628.65 844.081 1637.53 1055.32 1694.92 1191.42C1751.87 1313.81 1822.54 1429.34 1905.56 1535.78C1915.62 1548.84 1921.55 1564.59 1922.61 1581.03C1923.66 1597.47 1919.79 1613.86 1911.48 1628.09C1874.21 1691.4 1799.65 1813.29 1694.92 1968.9C1628.61 2075.9 1587.16 2196.42 1573.62 2321.57L1574.22 2321.57Z" fill="black" fill-opacity="0.3"/>
<path d="M1578.36 2302.64C1562.97 2415.66 1452.33 2503.82 1341.67 2473.64C1185.47 2430.44 1004.4 2362.99 840.504 2350.57L590.21 2331.63C549.814 2328.69 511.907 2311 483.704 2281.93L51.7616 1838.15C28.5985 1814.34 13.1577 1784.09 7.45749 1751.37C1.75728 1718.64 6.06279 1684.95 19.8113 1654.71C19.8113 1654.71 286.664 1068.93 296.724 1038.16C306.784 1007.99 342.884 742.312 364.179 599.119C370.021 561.2 388.843 526.484 417.432 500.896L927.484 42.327C944.327 27.2869 964.066 15.8484 985.49 8.71387C1006.91 1.57935 1029.57 -1.10055 1052.07 0.838717C1074.56 2.77799 1096.43 9.29551 1116.31 19.991C1136.2 30.6866 1153.69 45.3344 1167.71 63.0349L1596.7 607.402C1620.65 638.4 1633.56 676.512 1633.38 715.686C1633.38 818.645 1642.27 1030.47 1699.07 1167.15C1755.98 1290.13 1826.64 1406.25 1909.71 1513.31C1919.98 1526.35 1926.09 1542.19 1927.25 1558.75C1928.41 1575.32 1924.57 1591.85 1916.22 1606.2C1878.34 1670.11 1804.39 1792 1699.07 1948.8C1633 2056.29 1591.77 2177.18 1578.36 2302.64Z" fill="#6C31E3"/>
<path d="M529.857 2315.06C730.444 1908.56 725.113 1616.85 639.322 1409.75C561.22 1218.04 415.068 1097.33 300.278 1022.19C297.981 1033.22 294.406 1043.94 289.623 1054.14L19.8116 1654.72C6.13721 1685.02 1.92728 1718.74 7.73278 1751.47C13.5383 1784.2 29.0888 1814.41 52.3493 1838.16L483.705 2281.93C497.226 2295.36 512.806 2306.54 529.857 2315.06Z" fill="url(#paint0_radial_40_4)"/>
<path d="M1075.41 1490.23C1129.57 1495.55 1182.86 1507.67 1233.99 1526.32C1398.48 1587.85 1548.18 1726.32 1671.84 1993.18C1680.72 1977.79 1689.59 1963 1699.07 1948.8C1774.64 1836.65 1847.05 1722.4 1916.22 1606.2C1924.65 1591.9 1928.6 1575.4 1927.54 1558.84C1926.49 1542.28 1920.48 1526.41 1910.3 1513.31C1827.03 1406.28 1756.16 1290.15 1699.07 1167.15C1642.26 1031.06 1633.98 818.644 1633.38 715.685C1633.38 676.634 1620.96 638.17 1596.7 607.402L1167.71 63.0345L1160.61 54.1641C1191.97 157.703 1190.2 240.55 1170.67 315.693C1152.92 385.512 1119.79 448.825 1084.87 515.693C1073.04 538.178 1061.2 561.25 1049.96 584.917C994.318 691.196 962.42 808.293 956.476 928.11C950.557 1071.3 979.548 1250.59 1074.82 1490.23L1075.41 1490.23Z" fill="url(#paint1_radial_40_4)"/>
<path d="M1074.82 1490.23C979.548 1250.59 950.557 1071.3 956.476 928.102C962.395 786.099 1003.81 679.593 1049.96 584.917L1085.47 515.693C1119.79 448.825 1152.33 385.512 1170.67 315.693C1192.45 229.354 1188.96 138.574 1160.61 54.1639C1099.34 -13.1553 995.248 -18.4415 927.477 42.3266L417.44 500.896C388.851 526.483 370.029 561.199 364.187 599.119L302.063 1010.94C302.063 1015.08 300.873 1018.64 300.286 1022.78C415.075 1097.33 560.633 1218.04 639.33 1409.16C654.714 1447.03 667.733 1486.68 677.199 1529.87C806.502 1494.01 940.962 1480.41 1074.83 1489.64L1074.82 1490.23Z" fill="url(#paint2_radial_40_4)"/>
<path d="M1342.27 2473.64C1452.33 2503.82 1562.97 2415.66 1578.36 2302.04C1590.96 2194.28 1622.83 2089.66 1672.44 1993.18C1548.18 1726.31 1398.48 1587.85 1234.58 1526.32C1060.03 1461.24 870.091 1483.13 677.192 1529.87C720.384 1725.73 694.94 1981.94 530.452 2315.06C548.796 2324.53 569.503 2329.86 590.211 2331.63L849.97 2351.15C990.791 2361.21 1200.85 2433.99 1342.27 2473.64" fill="url(#paint3_radial_40_4)"/>
<path d="M957.658 919.232C951.152 1061.24 968.9 1223.37 1064.16 1462.42L1034.58 1459.46C948.78 1210.35 929.849 1082.55 936.355 938.758C942.274 794.978 989.021 684.322 1035.17 589.654C1047 565.987 1074.22 521.604 1086.06 499.119C1120.38 432.259 1143.46 397.349 1162.98 336.401C1191.39 251.197 1185.47 210.964 1181.91 170.73C1203.81 315.693 1120.38 441.724 1057.66 570.128C999.593 677.982 965.295 797.018 957.071 919.232H957.658Z" fill="url(#paint4_radial_40_4)"/>
<path d="M667.726 1419.81C679.556 1445.85 689.616 1467.15 696.717 1499.69L671.272 1505.61C661.212 1467.74 653.524 1440.53 638.727 1407.98C552.342 1205.02 413.878 1100.29 301.453 1023.37C437.553 1096.75 577.786 1212.12 667.718 1419.81" fill="url(#paint5_radial_40_4)"/>
<path d="M697.899 1525.73C745.233 1747.62 691.98 2029.86 535.181 2304.41C666.544 2032.23 730.444 1771.28 677.191 1529.28L697.899 1525.14V1525.73Z" fill="url(#paint6_radial_40_4)"/>
<path d="M1239.9 1505.02C1497.29 1601.47 1596.7 1812.7 1670.66 1989.62C1578.95 1805.01 1451.73 1600.87 1230.44 1525.14C1062.39 1467.15 920.384 1474.25 677.191 1529.28L671.867 1505.61C929.849 1446.44 1064.76 1439.34 1239.9 1505.61V1505.02Z" fill="url(#paint7_radial_40_4)"/>
</g>
<defs>
<radialGradient id="paint0_radial_40_4" cx="0" cy="0" r="1" gradientUnits="userSpaceOnUse" gradientTransform="translate(214619 2049.31) rotate(-104) scale(113089 211763)">
<stop stop-color="white" stop-opacity="0.4"/>
<stop offset="1" stop-opacity="0.1"/>
</radialGradient>
<radialGradient id="paint1_radial_40_4" cx="0" cy="0" r="1" gradientUnits="userSpaceOnUse" gradientTransform="translate(251033 52722.7) rotate(-82) scale(185025 369113)">
<stop stop-color="white" stop-opacity="0.6"/>
<stop offset="1" stop-color="white" stop-opacity="0.1"/>
</radialGradient>
<radialGradient id="paint2_radial_40_4" cx="0" cy="0" r="1" gradientUnits="userSpaceOnUse" gradientTransform="translate(213661 84958.3) rotate(-77) scale(158072 273410)">
<stop stop-color="white" stop-opacity="0.8"/>
<stop offset="1" stop-color="white" stop-opacity="0.4"/>
</radialGradient>
<radialGradient id="paint3_radial_40_4" cx="0" cy="0" r="1" gradientUnits="userSpaceOnUse" gradientTransform="translate(82540 1.6766e+08) scale(105161 91533.1)">
<stop stop-color="white" stop-opacity="0.3"/>
<stop offset="1" stop-opacity="0.3"/>
</radialGradient>
<radialGradient id="paint4_radial_40_4" cx="0" cy="0" r="1" gradientUnits="userSpaceOnUse" gradientTransform="translate(-59516.2 27588.5) rotate(102) scale(82281.1 424615)">
<stop stop-color="white" stop-opacity="0"/>
<stop offset="1" stop-color="white" stop-opacity="0.2"/>
</radialGradient>
<radialGradient id="paint5_radial_40_4" cx="0" cy="0" r="1" gradientUnits="userSpaceOnUse" gradientTransform="translate(-2424.19 -7643.88) rotate(45) scale(60669.8 74019.4)">
<stop stop-color="white" stop-opacity="0.2"/>
<stop offset="1" stop-color="white" stop-opacity="0.4"/>
</radialGradient>
<radialGradient id="paint6_radial_40_4" cx="0" cy="0" r="1" gradientUnits="userSpaceOnUse" gradientTransform="translate(42224.5 -11717.8) rotate(80) scale(70816.4 307636)">
<stop stop-color="white" stop-opacity="0.1"/>
<stop offset="1" stop-color="white" stop-opacity="0.3"/>
</radialGradient>
<radialGradient id="paint7_radial_40_4" cx="0" cy="0" r="1" gradientUnits="userSpaceOnUse" gradientTransform="translate(99900.2 -2.91994e+08) scale(203578 108249)">
<stop stop-color="white" stop-opacity="0.2"/>
<stop offset="0.5" stop-color="white" stop-opacity="0.2"/>
<stop offset="1" stop-color="white" stop-opacity="0.3"/>
</radialGradient>
<clipPath id="clip0_40_4">
<rect width="1927.71" height="2500" fill="white"/>
</clipPath>
</defs>
</svg>
