<svg width="4715" height="2500" viewBox="0 0 4715 2500" fill="none" xmlns="http://www.w3.org/2000/svg">
<path d="M4475.46 1037.81C4254.58 1426.63 4210.18 1464.77 4147.27 1439.44C4072.98 1409.84 4098.6 1020.44 4166.34 547.368C4185.41 415.294 4218.43 352.672 4255.15 320.792C4308.09 275.819 4404.3 273.826 4469.2 283.504C4544.06 294.321 4615.51 329.047 4669.59 381.421C4717.41 427.818 4722.82 475.353 4706.59 536.836C4679.84 634.753 4633.72 728.686 4589.6 820.341C4579.36 842.827 4487.7 1016.46 4475.46 1037.81ZM4074.12 1616.77C4047.44 1625.24 4023.41 1640.46 4004.36 1660.96C3985.3 1681.46 3971.88 1706.54 3965.38 1733.76C3958.41 1759.89 3958.58 1787.42 3965.89 1813.46C3973.2 1839.5 3987.38 1863.09 4006.94 1881.77C4027.45 1900.91 4053.67 1912.81 4081.58 1915.63C4109.5 1918.46 4137.57 1912.07 4161.5 1897.43C4176.69 1887.4 4189.74 1874.47 4199.9 1859.38C4210.07 1844.28 4217.14 1827.32 4220.71 1809.47C4243.48 1713.83 4193.95 1583.47 4074.12 1616.77ZM2648.06 1264.1C2691.89 1450.82 2687.34 1656.05 2649.76 1803.78C2614.75 1943.26 2519.4 2068.5 2368.25 2110.06C2235.61 2147.06 2081.05 2120.02 1986.55 2028.93C1830.56 1879.5 1739.48 1528.53 1780.18 1273.78C1812.91 1069.4 1923.36 807.532 2165.02 796.146C2180.48 795.293 2195.99 795.578 2211.41 797C2457.91 819.202 2592.83 1026.99 2648.06 1264.1ZM2319.86 1363.72C2308.48 1327.82 2288.44 1295.27 2261.51 1268.94C2163.59 1179.56 2065.68 1272.64 2048.6 1378.81C2035.5 1461.64 2054.58 1558.13 2106.38 1625.03C2129.64 1657.12 2163.53 1679.91 2202.02 1689.35C2215.64 1691.91 2229.65 1691.33 2243.01 1687.65C2289.12 1674.55 2315.59 1626.45 2327.83 1580.05C2346.87 1508.77 2344.09 1433.41 2319.86 1363.72ZM3686.15 1401.3C3591.36 1545.89 3304.73 1650.64 3181.76 1641.53V1660.32C3181.19 2005.31 3215.92 2269.46 3064.2 2300.77C2941.24 2325.53 2945.22 2217.65 2936.11 2127.14C2899.4 1775.6 2866.09 1192.08 2851.86 838.842C2861.82 687.128 2963.44 594.05 3069.33 571.278C3232.43 536.267 3406.63 546.229 3550.94 635.607C3836.44 812.086 3859.21 1136.58 3686.15 1401.3ZM3389.55 1040.94C3367.63 972.624 3299.89 874.707 3218.2 886.947C3200.55 889.793 3171.23 897.763 3162.97 915.126C3143.33 955.546 3144.76 1213.15 3178.91 1320.74C3184.61 1338.39 3196.56 1355.47 3214.49 1361.73C3279.11 1385.36 3337.46 1306.23 3363.93 1258.41C3382.77 1225.81 3394.77 1189.71 3399.17 1152.31C3403.58 1114.92 3400.3 1077.02 3389.55 1040.94ZM1570.97 592.911C1609.39 766.543 1601.42 944.16 1547.91 1058.3C1440.89 1284.59 1262.98 1464.49 1017.05 1553.58C1087.64 1737.74 1159.37 1920.2 1229.97 2104.36C1269.25 2203.99 1306.53 2312.72 1272.38 2410.64C1236.8 2510.83 1098.18 2538.73 997.697 2431.99C804.14 2225.91 149.462 921.104 101.073 823.187C59.7994 738.648 -1.39883 648.416 0.0243818 550.784C3.15545 403.908 230.016 255.609 339.034 179.325C491.318 73.1534 667.227 0.569286 855.376 0C1002.25 0 1127.49 40.4193 1238.79 111.58C1408.66 221.934 1528.06 394.936 1570.97 592.911ZM1049.22 810.093C1008.91 670.294 927.241 545.962 814.957 453.436C791.849 432.77 765.117 416.557 736.11 405.616C532.022 338.725 620.261 680.012 653.564 765.974C699.676 886.662 769.414 1039.23 862.776 1130.32C883.271 1150.24 907.465 1168.46 935.36 1173.87C977.772 1182.41 1017.05 1152.8 1038.4 1118.36C1054.55 1088.65 1064.25 1055.87 1066.87 1022.15C1074.28 950.967 1068.48 879.023 1049.22 810.093Z" fill="#00C1C8"/>
</svg>
