<svg width="2500" height="2500" viewBox="0 0 2500 2500" fill="none" xmlns="http://www.w3.org/2000/svg">
<path d="M2314.48 1227.5L1227.5 2314.48C1208.77 2335.19 1198.71 2362.31 1199.41 2390.23C1200.11 2418.14 1211.51 2444.73 1231.26 2464.47C1251 2484.22 1277.59 2495.62 1305.5 2496.32C1333.42 2497.02 1360.54 2486.96 1381.25 2468.23L2468.23 1381.25C2486.96 1360.54 2497.02 1333.42 2496.32 1305.5C2495.62 1277.58 2484.22 1251 2464.47 1231.26C2444.73 1211.51 2418.14 1200.11 2390.23 1199.41C2362.31 1198.71 2335.19 1208.77 2314.48 1227.5ZM2097.08 31.7708L31.7712 2097.08C13.0376 2117.79 2.98041 2144.91 3.67967 2172.83C4.37894 2200.75 15.7812 2227.33 35.5282 2247.08C55.2752 2266.82 81.8563 2278.23 109.774 2278.92C137.692 2279.62 164.81 2269.57 185.521 2250.83L2250.83 185.521C2269.57 164.81 2279.62 137.691 2278.93 109.774C2278.23 81.8559 2266.82 55.2748 2247.08 35.5278C2227.33 15.7808 2200.75 4.37851 2172.83 3.67925C2144.91 2.97998 2117.79 13.0372 2097.08 31.7708Z" fill="black"/>
</svg>
