<svg width="2500" height="2500" viewBox="0 0 2500 2500" fill="none" xmlns="http://www.w3.org/2000/svg">
<path fill-rule="evenodd" clip-rule="evenodd" d="M1719.49 836.172C1750.84 926.855 1773.42 1019.43 1780.84 1115.39C1790.06 1234.43 1785.84 1352.64 1760.74 1469.73C1760.06 1472.95 1758.61 1475.98 1757.54 1479.1C1749.67 1479.12 1741.64 1478.14 1733.95 1479.34C1668.93 1489.55 1603.96 1500.14 1539 1510.66C1471.86 1521.54 1404.61 1531.99 1337.58 1543.61C1313.83 1547.71 1284.43 1542.81 1274.84 1575.66C1274.57 1576.56 1271.84 1576.72 1270.25 1577.23L1273.5 1380.92L1270.2 907.246L1301.48 901.875C1352.66 893.496 1403.83 885 1455.04 876.855C1516.15 867.148 1577.32 857.715 1638.48 848.242C1665.45 844.043 1692.46 840.195 1719.49 836.172Z" fill="#439934"/>
<path fill-rule="evenodd" clip-rule="evenodd" d="M1205.64 2149.49C1172.64 2121.11 1138.48 2093.98 1106.84 2064.14C936.582 1903.55 812.051 1714.55 750.723 1486.68C733.828 1423.96 722.559 1360.23 718.945 1295.43C716.406 1250.08 712.734 1204.32 715.937 1159.2C724.473 1039.2 741.816 920.352 777.012 804.766L778.945 802.07C782.363 806.621 787.285 810.645 789.023 815.781C823.372 916.953 857.5 1018.2 891.406 1119.51C998.008 1437.87 1104.47 1756.31 1211.25 2074.59C1213.34 2080.8 1218.75 2085.9 1222.64 2091.5L1205.64 2149.49Z" fill="#45A538"/>
<path fill-rule="evenodd" clip-rule="evenodd" d="M1719.49 836.172C1692.46 840.195 1665.43 844.043 1638.46 848.203C1577.3 857.676 1516.13 867.109 1455.02 876.816C1403.81 884.961 1352.64 893.457 1301.46 901.836L1270.18 907.207L1269.94 886.797C1268.91 870.02 1267.13 853.262 1266.93 836.484C1265.59 729.492 1264.75 622.5 1263.42 515.508C1262.6 448.535 1261.37 381.582 1260 314.629C1259.16 273.027 1258.26 231.406 1256.39 189.863C1255.37 167.539 1251.78 145.332 1250.31 123.008C1249.49 110.176 1250.63 97.2461 1250.88 84.3555C1266.84 115.273 1282.44 146.426 1298.85 177.109C1324.77 225.625 1366.05 261.367 1403.22 300.371C1550.16 454.512 1654.47 633.73 1719.49 836.172Z" fill="#46A037"/>
<path fill-rule="evenodd" clip-rule="evenodd" d="M1270.23 1577.21C1271.82 1576.7 1274.57 1576.54 1274.82 1575.64C1284.41 1542.79 1313.81 1547.7 1337.56 1543.59C1404.59 1531.99 1471.84 1521.52 1538.98 1510.64C1603.95 1500.12 1668.91 1489.53 1733.93 1479.32C1741.62 1478.11 1749.65 1479.1 1757.52 1479.08C1745.37 1522.44 1735.8 1566.74 1720.39 1608.91C1702.89 1656.74 1681.72 1703.42 1659.24 1749.18C1625.61 1817.45 1583.95 1881.46 1535.16 1939.86C1497.68 1984.94 1455.9 2026.6 1414.02 2067.75C1390.88 2090.51 1363.59 2109.04 1338.2 2129.49L1331.62 2125L1307.91 2104.73L1283.38 2050.96C1266.62 1988.23 1257.48 1923.72 1256.15 1858.81L1256.6 1847.85L1259.94 1800.47C1261.05 1784.3 1262.54 1768.14 1263.22 1751.93C1265.74 1693.69 1267.93 1635.45 1270.23 1577.21Z" fill="#409433"/>
<path fill-rule="evenodd" clip-rule="evenodd" d="M1270.23 1577.21C1267.93 1635.45 1265.74 1693.69 1263.26 1751.95C1262.58 1768.16 1261.09 1784.32 1259.98 1800.49L1245.04 1806.13C1211.86 1708.44 1178.65 1611.78 1146.17 1514.86C1092.46 1354.53 1039.39 1193.95 985.762 1033.57C942.443 904.13 898.823 774.787 854.902 645.547C852.852 639.492 846.953 634.766 842.852 629.414L938.477 453.594C941.758 459.297 946.094 464.629 948.164 470.762C992.452 601.662 1036.51 732.639 1080.35 863.691C1137.3 1034.2 1193.91 1204.84 1250.82 1375.37C1253.09 1382.19 1256.84 1388.48 1260.41 1396.11L1273.5 1380.88L1270.23 1577.21Z" fill="#4FAA41"/>
<path fill-rule="evenodd" clip-rule="evenodd" d="M842.871 629.434C846.973 634.785 852.852 639.512 854.922 645.566C898.843 774.807 942.463 904.15 985.781 1033.59C1039.41 1193.96 1092.48 1354.55 1146.19 1514.88C1178.65 1611.78 1211.86 1708.46 1245.06 1806.15L1260 1800.51L1256.66 1847.89L1253.63 1858.81C1248.44 1910.68 1244.06 1962.68 1237.73 2014.43C1234.55 2040.37 1227.79 2065.84 1222.66 2091.52C1218.79 2085.92 1213.36 2080.82 1211.27 2074.61C1104.49 1756.31 998.027 1437.89 891.426 1119.53C857.512 1018.22 823.384 916.972 789.043 815.801C787.305 810.664 782.402 806.641 778.965 802.09L842.871 629.434Z" fill="#4AA73C"/>
<path fill-rule="evenodd" clip-rule="evenodd" d="M1273.48 1380.9L1260.39 1396.13C1256.82 1388.5 1253.07 1382.19 1250.8 1375.39C1193.91 1204.86 1137.29 1034.22 1080.33 863.711C1036.49 732.659 992.432 601.682 948.144 470.781C946.094 464.648 941.758 459.297 938.457 453.613L1056.72 298.047C1060.45 303.027 1065.76 307.461 1067.7 313.066C1100.51 409.186 1133.08 505.397 1165.41 601.699C1195.62 691.621 1225.39 781.68 1255.96 871.484C1258.01 877.5 1265.14 881.758 1269.9 886.836L1270.14 907.246C1271.27 1065.11 1272.38 1222.99 1273.48 1380.9Z" fill="#57AE47"/>
<path fill-rule="evenodd" clip-rule="evenodd" d="M1269.94 886.797C1265.18 881.719 1258.05 877.461 1256 871.445C1225.43 781.641 1195.66 691.582 1165.45 601.66C1133.12 505.371 1100.55 409.16 1067.73 313.027C1065.8 307.422 1060.49 302.988 1056.76 298.008C1095.21 260.352 1132.48 221.348 1172.48 185.43C1208.05 153.516 1236.64 119.297 1237.95 68.8672C1238.01 66.7773 1239.1 64.6875 1240.78 58.8281L1250.92 84.3359C1250.66 97.2461 1249.51 110.156 1250.35 122.988C1251.82 145.312 1255.41 167.52 1256.43 189.844C1258.3 231.387 1259.2 273.008 1260.04 314.609C1261.39 381.562 1262.62 448.516 1263.46 515.488C1264.77 622.48 1265.63 729.473 1266.97 836.465C1267.13 853.281 1268.89 870.019 1269.94 886.797Z" fill="#60B24F"/>
<path fill-rule="evenodd" clip-rule="evenodd" d="M1222.62 2091.5C1227.75 2065.82 1234.51 2040.33 1237.7 2014.41C1244.04 1962.68 1248.4 1910.66 1253.59 1858.79L1254.88 1858.59L1256.17 1858.81C1257.5 1923.72 1266.64 1988.23 1283.4 2050.96C1279.96 2055.49 1275.1 2059.53 1273.28 2064.65C1259.08 2104.69 1245.7 2145.04 1231.43 2185.08C1229.47 2190.55 1224.04 2194.8 1220.21 2199.61L1205.62 2149.49L1222.62 2091.5Z" fill="#A9AA88"/>
<path fill-rule="evenodd" clip-rule="evenodd" d="M1220.23 2199.63C1224.06 2194.82 1229.51 2190.57 1231.45 2185.1C1245.72 2145.06 1259.12 2104.73 1273.3 2064.67C1275.12 2059.55 1279.96 2055.51 1283.42 2050.98L1307.93 2104.77C1303.09 2111.64 1296.41 2117.83 1293.71 2125.49L1246.76 2263.36C1244.82 2268.89 1238.22 2272.79 1233.81 2277.46L1220.23 2199.63Z" fill="#B6B598"/>
<path fill-rule="evenodd" clip-rule="evenodd" d="M1233.81 2277.44C1238.24 2272.79 1244.82 2268.87 1246.76 2263.34L1293.71 2125.47C1296.39 2117.83 1303.09 2111.62 1307.93 2104.75L1331.66 2125C1320.2 2136.33 1313.83 2149.41 1317.66 2165.96L1310.45 2189.55C1307.17 2193.59 1302.42 2197.11 1300.8 2201.74C1284.41 2248.67 1268.77 2295.86 1252.27 2342.79C1250.18 2348.75 1244.37 2353.42 1240.27 2358.65C1238.14 2331.58 1235.98 2304.51 1233.81 2277.44Z" fill="#C2C1A7"/>
<path fill-rule="evenodd" clip-rule="evenodd" d="M1240.29 2358.65C1244.37 2353.4 1250.18 2348.73 1252.29 2342.79C1268.79 2295.88 1284.43 2248.69 1300.82 2201.74C1302.44 2197.13 1307.17 2193.59 1310.47 2189.55L1300.53 2297.85C1297.87 2300.92 1294.02 2303.59 1292.75 2307.17C1281.52 2338.69 1270.94 2370.45 1259.67 2401.97C1257.34 2408.48 1252.89 2414.22 1249.41 2420.29C1246.33 2416.25 1240.8 2412.34 1240.55 2408.12C1239.55 2391.7 1240.23 2375.16 1240.29 2358.65Z" fill="#CECDB7"/>
<path fill-rule="evenodd" clip-rule="evenodd" d="M1249.39 2420.29C1252.87 2414.2 1257.32 2408.46 1259.65 2401.97C1270.94 2370.47 1281.5 2338.71 1292.73 2307.17C1294 2303.59 1297.87 2300.94 1300.51 2297.85L1300.74 2368.95L1276.95 2429.96L1249.39 2420.29Z" fill="#DBDAC7"/>
<path fill-rule="evenodd" clip-rule="evenodd" d="M1276.95 2429.98L1300.74 2368.96L1305.64 2441.15L1276.95 2429.98Z" fill="#EBE9DC"/>
<path fill-rule="evenodd" clip-rule="evenodd" d="M1317.66 2165.98C1313.83 2149.43 1320.18 2136.33 1331.66 2125.02L1338.24 2129.51L1317.66 2165.98Z" fill="#CECDB7"/>
<path fill-rule="evenodd" clip-rule="evenodd" d="M1256.17 1858.83L1254.88 1858.61L1253.59 1858.81L1256.62 1847.89L1256.17 1858.83Z" fill="#4FAA41"/>
</svg>
