<svg width="2500" height="2491" viewBox="0 0 2500 2491" fill="none" xmlns="http://www.w3.org/2000/svg">
<g clip-path="url(#clip0_184_12)">
<path d="M1472.03 0C1453.95 0 1437.17 3.87695 1421.67 9.04297C1454.6 30.9863 1472.68 60.0391 1481.71 92.9688C1482.36 97.4902 1483.65 100.723 1484.3 105.234C1484.94 109.111 1485.59 112.988 1485.59 116.855C1488.17 173.672 1470.74 180.771 1458.47 214.346C1439.75 257.607 1444.91 304.092 1467.51 341.533C1469.44 346.055 1472.03 351.221 1475.25 355.742C1450.72 192.393 1586.95 167.861 1612.13 116.855C1614.06 72.3145 1577.27 42.6074 1548.21 21.9531C1520.45 5.15625 1495.27 0 1472.03 0ZM1677.33 36.7969C1674.76 51.6504 1676.69 47.7734 1676.04 55.5273C1675.4 60.6934 1675.4 67.1484 1674.76 72.3145C1673.47 77.4707 1672.18 82.6367 1670.23 87.8027C1668.95 92.9785 1667.01 98.1348 1665.08 103.301C1662.49 108.467 1660.56 112.988 1657.97 118.145C1656.04 120.732 1654.75 123.32 1652.8 125.898L1648.94 131.709C1645.71 136.23 1642.48 140.752 1639.25 144.619C1635.37 148.496 1632.15 153.018 1627.63 156.24V156.885C1623.75 160.117 1619.88 163.994 1615.36 167.217C1601.81 177.549 1586.31 185.293 1572.1 194.98C1567.59 198.203 1563.07 200.791 1559.19 204.668C1554.67 207.891 1550.79 211.113 1546.92 215C1542.4 218.867 1539.18 222.744 1535.3 227.266C1532.08 231.133 1528.2 235.664 1525.62 240.176C1522.39 244.697 1519.17 249.209 1516.58 253.73C1513.99 258.906 1512.06 263.418 1509.47 268.574C1507.54 273.75 1505.61 278.271 1504.32 283.428C1502.37 289.238 1501.08 294.404 1499.79 299.57C1499.15 302.158 1499.15 305.381 1498.51 307.969C1497.85 310.547 1497.85 313.135 1497.22 315.713C1497.22 320.879 1496.56 326.689 1496.56 331.855C1496.56 335.732 1496.56 339.6 1497.22 343.477C1497.22 348.643 1497.86 353.809 1499.15 359.619C1499.79 364.785 1501.08 369.941 1502.37 375.107C1504.32 380.283 1505.61 385.439 1507.55 390.605C1508.83 393.828 1510.77 397.061 1512.06 399.648L1363.57 342.188C1338.77 335.125 1313.8 328.665 1288.68 322.812L1248.01 313.135C1209.27 305.381 1169.88 299.57 1130.51 295.703C1129.22 295.703 1128.56 295.049 1127.29 295.049C1088.88 291.181 1050.31 289.242 1011.71 289.238C983.301 289.238 954.893 290.527 927.139 292.461C887.744 295.049 848.369 300.215 808.975 306.67C799.297 307.969 789.609 309.902 779.932 311.846C759.912 315.713 740.547 320.234 721.826 324.756L692.764 332.5C683.086 336.377 674.043 340.898 665.01 344.766L643.701 354.453C642.412 355.098 641.113 355.098 640.479 355.742C634.014 358.965 628.203 361.553 622.393 364.775C620.837 365.304 619.325 365.954 617.871 366.719C610.771 369.941 603.672 373.818 597.861 377.051C593.34 378.984 588.818 381.563 584.951 383.496C583.077 384.683 581.138 385.763 579.141 386.729C573.33 389.951 567.52 393.184 562.344 396.416C557.003 399.351 551.832 402.585 546.855 406.104C542.334 409.326 537.822 411.914 533.945 415.137C533.301 415.781 532.656 415.781 532.002 416.426C528.135 419.014 523.613 422.236 519.736 425.469L518.447 426.758L508.77 434.502C507.471 435.156 506.182 436.445 504.893 437.09C501.67 439.668 498.438 442.9 495.205 445.488C494.561 446.768 493.271 447.422 492.627 448.066C488.75 451.943 484.873 455.166 481.006 459.043C480.352 459.043 480.352 459.688 479.717 460.332C475.84 463.555 471.963 467.432 468.096 471.309C467.441 471.953 467.441 472.598 466.797 472.598C463.574 475.82 460.352 479.053 457.119 482.93C455.83 484.219 453.896 485.508 452.598 486.797C449.375 490.674 445.498 494.551 441.621 498.418C440.977 499.717 439.688 500.361 439.033 501.65C433.877 506.816 429.355 511.982 424.189 517.148L422.256 519.082C411.924 530.059 400.947 541.035 389.326 550.723C377.878 560.939 365.8 570.427 353.164 579.131C340.645 587.91 327.721 596.096 314.434 603.662C301.257 610.889 287.676 617.354 273.76 623.027C260.026 628.864 246.019 634.036 231.787 638.525C204.678 644.336 176.904 655.313 153.027 657.246C147.852 657.246 142.051 658.535 136.885 659.18C131.488 660.403 126.106 661.696 120.742 663.057L105.244 668.867C100.078 670.801 94.9219 673.389 89.7559 675.967C85.2344 679.189 80.0684 681.777 75.5469 685.01C71.0254 688.232 66.5137 692.109 62.6367 695.986C58.1152 699.209 53.5938 703.73 49.7266 707.607C45.8496 712.129 41.9727 716.006 38.75 720.518C35.5273 725.684 31.6504 730.205 29.0625 735.361C25.8398 739.893 22.6074 745.049 20.0195 750.215C17.4414 756.025 14.8633 761.191 12.9199 767.012C10.8834 772.569 8.94629 778.163 7.10937 783.789C5.82031 788.955 4.53125 794.121 3.88672 799.287C3.88672 799.932 3.23242 800.576 3.23242 801.221C1.94336 807.031 1.94336 814.785 1.29883 818.652C0.654297 823.174 0.00976562 827.051 0.00976562 831.563C0.00976562 834.15 0.00976562 837.373 0.654297 839.961C1.29883 844.482 1.94336 848.359 3.24219 852.227C4.53125 856.103 5.82031 859.971 7.76367 863.848V864.492C9.69727 868.369 12.2754 872.246 14.8633 876.113C17.4414 879.99 20.0293 883.867 23.2617 887.734C26.4844 890.957 30.3516 894.844 34.2285 898.066C38.1055 901.943 41.9824 905.166 46.4941 908.398C61.9922 921.953 65.8691 926.475 85.8789 936.807C89.1016 938.74 92.334 940.029 96.2109 941.973C96.8555 941.973 97.5 942.617 98.1445 942.617C98.1445 943.906 98.1445 944.551 98.7988 945.84C99.4434 951.016 100.732 956.172 102.021 961.338C103.311 967.148 105.244 972.314 107.187 976.836C109.121 980.713 110.41 984.58 112.354 988.457C112.998 989.746 113.643 991.045 114.287 991.68C116.875 996.855 119.463 1001.37 122.041 1005.89L131.719 1019.44C134.941 1023.32 138.818 1027.84 142.695 1031.72C146.572 1035.59 150.449 1038.82 154.961 1042.69C154.961 1042.69 155.615 1043.34 156.25 1043.34C160.127 1046.56 164.004 1049.79 167.871 1052.37C172.393 1055.6 176.914 1058.18 182.08 1060.77C186.602 1063.35 191.768 1065.94 196.924 1067.87C200.801 1069.8 205.322 1071.09 209.844 1072.39C210.488 1073.04 211.133 1073.04 212.422 1073.68C215.01 1074.33 218.232 1074.97 220.82 1075.62C218.877 1110.48 218.232 1143.41 223.398 1155.03C229.209 1167.94 257.617 1128.56 286.025 1083.37C282.158 1127.91 279.58 1180.21 286.025 1195.7C293.125 1211.85 331.865 1161.48 365.439 1105.96C823.193 1000.08 1240.91 1316.44 1284.81 1763.21C1276.42 1693.49 1190.56 1654.75 1151.17 1664.43C1131.8 1712.21 1098.88 1773.54 1045.94 1811.63C1050.45 1769.02 1048.52 1725.12 1039.47 1682.51C1025.27 1741.9 997.51 1797.43 959.414 1845.21C898.086 1849.73 836.758 1820.03 804.463 1775.48C801.885 1773.54 801.24 1769.67 799.307 1767.08C797.363 1762.57 795.43 1758.05 794.131 1753.53C792.251 1749.2 790.95 1744.64 790.264 1739.97C789.619 1735.45 789.619 1730.93 789.619 1725.76V1716.08C790.264 1711.56 791.553 1707.04 792.842 1702.52C794.131 1698.01 795.43 1693.49 797.363 1688.96C799.951 1684.44 801.885 1679.92 805.107 1675.41C816.084 1644.41 816.084 1619.24 796.074 1604.38C792.198 1601.86 788.091 1599.7 783.809 1597.94C781.221 1597.29 777.998 1595.99 775.41 1595.35C773.477 1594.7 772.188 1594.05 770.244 1593.41C765.732 1592.12 761.211 1590.83 756.689 1590.19C752.284 1588.91 747.722 1588.25 743.135 1588.24C738.613 1587.6 733.447 1586.95 728.926 1586.95C725.703 1586.95 722.48 1587.6 719.238 1587.6C714.082 1587.6 709.561 1588.25 705.039 1589.54C700.518 1590.19 695.996 1590.83 691.484 1592.12C686.963 1593.41 682.441 1594.71 677.92 1596.64C673.408 1598.57 669.521 1600.52 665.01 1602.45C661.133 1604.38 657.266 1606.97 652.744 1608.91C502.314 1707.05 592.051 1936.88 694.707 2003.39C655.967 2010.49 616.582 2018.89 605.615 2027.28L604.326 2028.56C632.08 2045.36 661.133 2059.56 691.484 2071.83C732.803 2085.38 776.709 2097.65 796.074 2102.81V2103.46C849.565 2114.43 904.263 2118.33 958.77 2115.08C1244.79 2095.06 1479.15 1877.49 1521.76 1590.83C1523.05 1596.64 1524.35 1601.81 1525.63 1607.62C1527.57 1619.24 1530.16 1631.5 1531.45 1643.77V1644.42C1532.73 1650.23 1533.38 1656.04 1534.03 1661.21V1663.79C1534.68 1669.6 1535.32 1675.41 1535.32 1680.58C1535.97 1687.68 1536.61 1694.78 1536.61 1701.88V1712.21C1536.61 1715.44 1537.26 1719.32 1537.26 1722.54C1537.26 1726.42 1536.61 1730.29 1536.61 1734.16V1743.2C1536.61 1747.72 1535.97 1751.6 1535.97 1756.11C1535.97 1758.7 1535.97 1761.28 1535.31 1764.51C1535.31 1769.02 1534.67 1773.54 1534.67 1778.71C1534.02 1780.64 1534.02 1782.59 1534.02 1784.52C1533.38 1789.69 1532.73 1794.21 1532.08 1799.37C1532.08 1801.31 1532.08 1803.24 1531.44 1805.19C1530.79 1811.63 1529.5 1817.45 1528.86 1823.91V1825.2C1527.57 1831.01 1526.27 1837.47 1524.98 1843.28V1845.21L1521.1 1862.65C1521.1 1863.29 1520.46 1864.58 1520.46 1865.22C1519.17 1871.04 1517.88 1876.85 1515.94 1882.67V1884.6C1514 1891.05 1512.07 1896.87 1510.78 1902.68C1510.13 1903.32 1510.13 1903.96 1510.13 1903.96L1504.32 1923.33C1501.74 1929.79 1499.8 1935.61 1497.22 1942.06C1494.64 1948.51 1492.7 1954.97 1490.12 1960.78C1487.53 1967.24 1484.94 1973.05 1482.37 1979.5H1481.72C1479.14 1985.31 1476.55 1991.77 1473.32 1997.58C1472.79 1999.13 1472.15 2000.65 1471.39 2002.1C1470.74 2002.75 1470.74 2003.39 1470.1 2004.04C1428.13 2088.61 1366.15 2162.86 1288.68 2220.97C1283.51 2224.19 1278.35 2228.08 1273.18 2231.94C1271.89 2233.23 1269.96 2233.89 1268.66 2235.17C1264.14 2238.4 1259.63 2241.63 1254.46 2244.85L1256.4 2248.73H1257.04L1284.16 2244.85H1284.8C1301.6 2242.28 1318.38 2239.04 1335.17 2235.82C1339.69 2235.18 1344.85 2233.89 1349.37 2232.6C1352.6 2231.94 1355.18 2231.3 1358.41 2230.65C1362.93 2230.01 1367.45 2228.72 1371.96 2228.07C1375.84 2226.78 1379.72 2226.13 1383.58 2224.84C1448.15 2209.35 1510.78 2188.04 1570.82 2162.86C1468.16 2302.96 1330.64 2415.95 1169.88 2490.2C1244.13 2485.03 1318.38 2472.76 1390.05 2452.11C1650.23 2375.27 1869.1 2200.31 2000.17 1964.66C1973.56 2114.14 1914.25 2255.9 1826.48 2379.79C1889.05 2338.52 1946.87 2290.45 1998.87 2236.46C2143.5 2085.39 2238.4 1893.63 2270.68 1687.68C2292.71 1789.85 2299.02 1894.79 2289.4 1998.88C2755.55 1348.72 2328.14 674.688 2149.31 497.139C2148.65 495.85 2148.02 495.205 2148.02 493.916C2147.36 494.561 2147.36 494.561 2147.36 495.205C2147.36 494.551 2147.36 494.551 2146.72 493.916C2146.72 501.66 2146.07 509.404 2145.43 517.158C2143.5 532.002 2141.55 546.211 2138.97 560.42C2135.75 574.619 2131.87 588.818 2128 603.027C2123.4 617.003 2118.23 630.785 2112.5 644.336C2106.57 657.718 2100.11 670.859 2093.13 683.73C2086.04 695.996 2078.29 708.906 2069.89 720.527C2061.59 732.534 2052.76 744.167 2043.43 755.391C2033.73 767.012 2023.41 777.344 2013.08 787.676C2007 793.238 2000.75 798.618 1994.36 803.809C1989.18 808.33 1984.67 812.207 1979.5 816.729C1967.88 825.762 1956.26 834.16 1943.35 841.904C1931.08 849.648 1918.16 857.402 1905.26 863.857C1891.69 870.312 1878.13 876.123 1864.58 881.934C1850.82 887.128 1836.82 891.651 1822.62 895.488C1808.34 899.331 1793.91 902.563 1779.36 905.176C1764.51 907.764 1749.67 909.053 1735.46 910.342C1725.13 910.986 1714.79 911.631 1704.46 911.631C1689.62 911.631 1674.77 910.342 1660.57 909.053C1645.71 907.754 1630.86 905.82 1616.66 902.588C1601.82 900.01 1587.61 896.143 1573.4 891.621H1572.75C1586.96 890.322 1601.17 889.033 1615.37 886.445C1629.94 883.905 1644.37 880.675 1658.63 876.768C1672.83 872.931 1686.83 868.407 1700.59 863.213C1714.79 858.037 1728.35 851.592 1741.27 845.127C1754.82 838.682 1767.09 831.572 1780 823.828C1792.27 815.43 1804.54 807.031 1816.16 797.998C1827.73 789.006 1838.72 779.303 1849.08 768.945C1860.06 759.258 1869.75 748.291 1879.43 737.305C1888.87 726 1897.91 714.372 1906.54 702.441C1907.83 700.508 1909.13 697.93 1910.42 695.996C1916.87 685.664 1923.33 675.332 1929.14 665C1936.24 652.198 1942.71 639.054 1948.52 625.615C1954.35 612.106 1959.52 598.32 1964 584.307C1968.53 570.732 1971.76 556.533 1974.98 542.334C1977.57 527.49 1980.16 513.281 1981.44 499.072C1982.72 484.229 1984.02 469.385 1984.02 455.176C1984.02 444.844 1983.38 434.512 1982.73 424.18C1981.45 409.336 1979.51 395.127 1977.56 380.918C1975.02 366.356 1971.79 351.923 1967.89 337.666C1963.36 324.111 1958.85 309.902 1953.68 296.348C1948.51 282.793 1942.06 269.229 1935.61 256.318C1928.5 243.408 1921.4 230.488 1913.65 218.232C1905.41 206.131 1896.79 194.286 1887.82 182.715C1878.1 171.578 1868.2 160.6 1858.12 149.785C1852.69 144.247 1847.09 138.868 1841.34 133.652C1812.41 111.187 1782.47 90.0711 1751.59 70.3711C1747.42 67.9661 1743.11 65.8138 1738.68 63.9258C1717.38 50.3613 1697.37 43.2617 1677.35 36.8066L1677.33 36.7969Z" fill="#E0234E"/>
</g>
<defs>
<clipPath id="clip0_184_12">
<rect width="2500" height="2490.23" fill="white"/>
</clipPath>
</defs>
</svg>
