<svg width="2500" height="2500" viewBox="0 0 2500 2500" fill="none" xmlns="http://www.w3.org/2000/svg">
<g clip-path="url(#clip0_184_10)">
<path d="M1250 2495.42C1214.38 2495.42 1181.25 2486.15 1150.31 2470.1L834.792 2289.06C787.396 2263.85 811.146 2254.69 825.417 2250.1C889.375 2229.48 901.25 2224.9 967.709 2188.13C974.792 2183.54 984.375 2185.83 991.459 2190.42L1233.44 2330.31C1242.81 2334.9 1254.79 2334.9 1261.88 2330.31L2208.44 1800.73C2217.81 1796.15 2222.6 1786.98 2222.6 1775.52V718.646C2222.6 707.188 2217.92 698.021 2208.44 693.438L1261.88 166.25C1252.4 161.667 1240.52 161.667 1233.44 166.25L286.875 693.438C277.396 698.021 272.605 709.479 272.605 718.646V1775.52C272.605 1784.69 277.396 1796.15 286.875 1800.73L545.417 1945.21C685.417 2013.96 773.125 1933.75 773.125 1853.54V810.417C773.125 796.667 785 782.917 801.667 782.917H922.605C936.875 782.917 951.042 794.375 951.042 810.417V1853.44C951.042 2034.58 849.063 2140 671.146 2140C616.563 2140 573.855 2140 452.917 2082.71L203.854 1945.21C173.842 1928.71 148.78 1904.49 131.255 1875.06C113.731 1845.63 104.379 1812.06 104.167 1777.81V720.938C104.167 652.188 142.084 588.021 203.854 553.646L1150.42 23.9585C1181.23 8.155 1215.37 -0.0874023 1250 -0.0874023C1284.63 -0.0874023 1318.77 8.155 1349.58 23.9585L2296.25 553.542C2357.92 587.917 2395.83 652.084 2395.83 720.834V1777.71C2395.83 1846.46 2357.92 1910.63 2296.25 1945.1L1349.69 2474.58C1318.22 2488.22 1284.29 2495.24 1250 2495.21M1541.77 1768.44C1126.67 1768.44 1041.25 1585.1 1041.25 1429.17C1041.25 1415.42 1053.13 1401.67 1069.69 1401.67H1193.02C1207.29 1401.67 1219.06 1410.83 1219.06 1424.58C1238.13 1546.04 1292.71 1605.63 1544.17 1605.63C1743.44 1605.63 1828.85 1562.08 1828.85 1458.96C1828.85 1399.38 1805.1 1355.83 1494.38 1326.04C1235.73 1300.73 1074.48 1245.83 1074.48 1046.35C1074.48 860.625 1235.73 750.521 1506.25 750.521C1809.9 750.521 1959.38 851.459 1978.33 1071.56C1978.12 1079.01 1975.61 1086.22 1971.15 1092.19C1966.46 1096.77 1959.38 1101.35 1952.19 1101.35H1828.85C1822.86 1101.21 1817.08 1099.12 1812.38 1095.4C1807.69 1091.68 1804.33 1086.53 1802.81 1080.73C1774.27 954.688 1700.73 913.333 1506.25 913.333C1287.92 913.333 1261.88 986.667 1261.88 1041.77C1261.88 1108.23 1292.71 1128.85 1586.88 1165.52C1878.65 1202.19 2016.25 1254.9 2016.25 1451.98C2013.85 1653.85 1843.13 1768.44 1541.77 1768.44Z" fill="black"/>
</g>
<defs>
<clipPath id="clip0_184_10">
<rect width="2500" height="2500" fill="white"/>
</clipPath>
</defs>
</svg>
