<svg width="512" height="512" viewBox="0 0 512 512" fill="none" xmlns="http://www.w3.org/2000/svg">
<path d="M452.468 104.264C368.672 -4.24802 212.764 -24.28 104.248 59.532C-4.25208 143.344 -24.2641 299.252 59.5479 407.752C143.376 516.248 299.296 536.248 407.78 452.42C516.236 368.608 536.252 212.748 452.468 104.264Z" fill="#F37036"/>
<path d="M364.312 96.656C355.766 97.3395 347.663 100.74 341.188 106.36C333.611 112.94 328.775 122.122 327.635 132.092C326.495 142.063 329.133 152.099 335.028 160.22C340.918 168.343 349.639 173.964 359.469 175.974C369.299 177.984 379.526 176.238 388.132 171.08H388.14L388.764 171.704C391.599 170.08 394.236 168.134 396.624 165.904C403.991 158.112 408.044 147.763 407.928 137.04C407.811 126.317 403.535 116.058 396 108.428V108.42L360.624 143.576L360 142.956L395.376 107.784C391.281 103.836 386.394 100.804 381.039 98.8866C375.684 96.9695 369.982 96.212 364.312 96.664V96.656ZM317.736 154.204C300.776 154.176 273.084 173.4 205.468 241.016L205.804 241.36C205.436 241.232 205.064 241.22 205.064 241.22L179.608 266.452C178.954 267.074 178.522 267.892 178.376 268.782C178.23 269.673 178.379 270.586 178.8 271.384C179.221 272.182 179.891 272.821 180.709 273.202C181.526 273.584 182.446 273.689 183.328 273.5L226.984 264.188C227.178 264.008 227.308 263.769 227.352 263.508L228.32 264.508L213.44 279.268H212.72L124.376 368.308L152.72 395.604C153.512 396.321 154.512 396.765 155.574 396.873C156.636 396.98 157.705 396.744 158.624 396.2C159.55 395.661 160.292 394.855 160.753 393.887C161.213 392.919 161.37 391.835 161.204 390.776L157.064 372.776C156.804 372.415 156.664 371.981 156.664 371.536C156.664 371.091 156.804 370.657 157.064 370.296C195.76 351.848 231.746 328.184 264.016 299.964L245.876 281.816L246.22 281.76L235.46 271.004L236.148 270.308L236.876 271.052L236.5 271.416L265.048 300.588V300.576C319.768 248.76 358.608 207.108 348.508 179.076C348.048 175.724 346.491 172.618 344.08 170.244V170.26C343.466 169.806 342.82 169.397 342.148 169.036C341.816 168.684 341.524 168.324 341.172 167.98L340.908 168.244C340.165 167.795 339.386 167.407 338.58 167.084L339.736 165.916C332.552 159.516 326.616 154.22 317.736 154.196V154.204ZM123.76 368.84L103.076 389.528V389.544C102.334 390.004 101.757 390.687 101.428 391.496C101.1 392.305 101.037 393.197 101.248 394.044C101.452 394.891 101.918 395.651 102.579 396.218C103.241 396.785 104.064 397.128 104.932 397.2L155.62 400.7L123.76 368.84Z" fill="white"/>
<path d="M367.8 93.24C356.191 93.2269 345.043 97.7816 336.764 105.92C330.875 111.949 326.842 119.543 325.147 127.798C323.452 136.054 324.166 144.623 327.204 152.484C308.24 144.364 282.584 158.524 202.78 238.312C202.724 238.435 202.675 238.56 202.632 238.688C202.468 238.76 202.309 238.843 202.156 238.936L176.92 264.392C175.71 265.579 174.916 267.125 174.654 268.8C174.393 270.474 174.678 272.188 175.468 273.688C176.173 274.875 177.171 275.861 178.367 276.55C179.563 277.239 180.916 277.609 182.296 277.624L183.548 276.812L217.244 269.624L201.124 285.892C201.033 286.107 200.961 286.329 200.908 286.556L121.908 365.752C121.593 366.017 121.332 366.34 121.14 366.704L100.796 387.064C99.7833 388.135 99.0913 389.468 98.7986 390.913C98.5058 392.358 98.6241 393.855 99.14 395.236C99.6724 396.607 100.572 397.804 101.741 398.697C102.909 399.59 104.301 400.143 105.764 400.296L156.236 403.816C157.098 403.516 157.832 402.931 158.316 402.156C158.748 401.552 158.98 400.828 158.98 400.086C158.98 399.344 158.748 398.62 158.316 398.016L158.212 397.916C159.304 397.348 160.265 396.558 161.032 395.596C161.842 394.544 162.408 393.325 162.688 392.027C162.969 390.729 162.958 389.385 162.656 388.092L158.72 371.344C196.482 353.298 231.864 330.645 264.056 303.9C264.367 304.081 264.7 304.22 265.048 304.312C266.064 304.236 267.016 303.8 267.736 303.08C321.936 251.76 353.796 216.592 353.796 188.672C353.916 184.799 353.332 180.936 352.072 177.272C356.958 179.294 362.167 180.418 367.452 180.592L367.392 180.608C374.671 180.389 381.787 178.398 388.124 174.808L388.14 174.812C388.961 175.056 389.843 174.977 390.608 174.592C393.666 172.791 396.454 170.566 398.888 167.984C403.013 163.937 406.291 159.108 408.528 153.78C410.766 148.452 411.919 142.731 411.92 136.952C411.92 131.173 410.767 125.453 408.53 120.124C406.293 114.796 403.017 109.967 398.892 105.92C398.744 105.787 398.586 105.665 398.42 105.556C390.185 97.6516 379.211 93.2397 367.796 93.244L367.8 93.24ZM367.452 100.328C375.535 100.376 383.382 103.065 389.796 107.984L357.524 140.452C357.415 140.576 357.313 140.707 357.22 140.844C356.638 141.433 356.297 142.217 356.264 143.044C356.264 143.544 356.376 144.037 356.593 144.487C356.81 144.937 357.125 145.333 357.516 145.644H357.524L381.924 170.044C375.246 172.959 367.842 173.788 360.684 172.422C353.527 171.057 346.949 167.561 341.812 162.392C331.468 151.992 328.468 136.376 334 122.828C339.532 109.268 352.72 100.408 367.452 100.328ZM395.932 114.056C401.209 120.44 404.086 128.469 404.064 136.752C404.049 146.455 400.182 155.755 393.312 162.608C391.934 163.904 390.467 165.1 388.92 166.188L369.228 146.8L365.376 142.948L366.436 141.888L395.928 114.048L395.932 114.056ZM394.468 130.828C393.744 130.6 392.962 130.644 392.268 130.952C391.581 131.307 391.064 131.92 390.828 132.656C390.712 133.023 390.67 133.41 390.705 133.794C390.739 134.178 390.849 134.551 391.028 134.892C391.737 136.387 392.016 138.049 391.835 139.694C391.653 141.338 391.018 142.9 390 144.204C389.739 144.456 389.535 144.76 389.4 145.096C389.266 145.433 389.204 145.794 389.22 146.156C389.236 146.892 389.5 147.596 390 148.124C390.533 148.328 391.123 148.328 391.656 148.124C392.137 148.244 392.642 148.23 393.115 148.084C393.589 147.938 394.014 147.666 394.344 147.296C396.047 145.21 397.126 142.684 397.455 140.011C397.784 137.337 397.35 134.625 396.204 132.188V132.204C395.813 131.548 395.195 131.059 394.468 130.828ZM317.36 157.72C322.187 157.885 326.831 159.605 330.6 162.624C326.541 163.209 322.78 165.089 319.876 167.984L228.648 258.804L210.744 240.9C258.056 193.812 286.984 169.216 304.968 161.156C308.674 158.823 312.982 157.631 317.36 157.72ZM333.22 169.56C336.283 169.562 339.221 170.776 341.392 172.936C342.544 174.021 343.454 175.339 344.06 176.801C344.666 178.263 344.955 179.838 344.908 181.42C344.855 182.997 344.478 184.546 343.801 185.97C343.123 187.395 342.158 188.665 340.968 189.7L243.968 274.124L233.5 263.656L325.048 172.936C327.22 170.777 330.158 169.561 333.22 169.56ZM345.196 196.352C338.436 223.16 302.608 259.484 265.248 294.78L250.14 279.688L345.196 196.352ZM205.468 246.188L206.564 247.268L220.616 261.32L182.096 269.56L205.468 246.188ZM228.64 269.548L228.656 269.564L233.328 274.344L233.4 274.68L233.712 274.728L234.704 275.744L237.984 279.104L216.444 281.744L228.64 269.548ZM244.108 285.852L258.42 300.156C226.773 326.472 192.045 348.844 155 366.78C153.797 367.353 152.83 368.325 152.264 369.53C151.697 370.736 151.566 372.101 151.892 373.392L156.032 391.392C156.185 391.603 156.267 391.857 156.267 392.118C156.267 392.379 156.185 392.633 156.032 392.844C155.804 393.048 155.51 393.161 155.204 393.161C154.898 393.161 154.604 393.048 154.376 392.844L129.968 368.236L205.2 291.9L244.108 285.852ZM124.376 373.612L127.852 376.868L145.82 394.836L105.756 392.244L124.376 373.612Z" fill="#F37036"/>
</svg>
