<svg width="2425" height="2500" viewBox="0 0 2425 2500" fill="none" xmlns="http://www.w3.org/2000/svg">
<path d="M2414.85 1497.03C2400.31 1453 2362.23 1422.34 2312.99 1414.98C2289.77 1411.52 2263.18 1412.99 2231.71 1419.48C2176.87 1430.8 2136.17 1435.1 2106.48 1435.94C2218.57 1246.69 2309.72 1030.87 2362.19 827.718C2447.04 499.223 2401.69 349.574 2348.71 281.884C2208.49 102.718 2003.92 6.4678 1757.12 3.52272C1625.46 1.91287 1509.89 27.9072 1449.59 46.6004C1393.46 36.6951 1333.1 31.1648 1269.76 30.142C1151.04 28.2481 1046.15 54.1288 956.515 107.32C906.894 90.5398 827.253 66.8845 735.284 51.7898C518.977 16.2784 344.64 43.9489 217.121 134.034C62.7079 243.106 -8.87353 432.614 4.3651 697.292C8.56965 781.326 55.5772 1037.01 129.592 1279.49C172.13 1418.86 217.49 1534.6 264.412 1623.52C330.956 1749.61 402.159 1823.86 482.092 1850.53C526.894 1865.45 608.295 1875.91 693.911 1804.6C704.763 1817.75 719.242 1830.8 738.456 1842.94C762.859 1858.32 792.698 1870.9 822.5 1878.35C929.895 1905.2 1030.49 1898.48 1116.32 1860.85C1116.85 1876.12 1117.25 1890.7 1117.59 1903.3C1118.16 1923.72 1118.73 1943.75 1119.48 1962.48C1124.56 2089.13 1133.18 2187.6 1158.71 2256.51C1160.11 2260.29 1162 2266.07 1163.99 2272.2C1176.72 2311.19 1198.02 2376.48 1252.21 2427.6C1308.31 2480.57 1376.18 2496.81 1438.34 2496.81C1469.52 2496.81 1499.26 2492.72 1525.35 2487.13C1618.34 2467.2 1723.96 2436.84 1800.36 2328.05C1872.59 2225.21 1907.71 2070.31 1914.06 1826.25C1914.89 1819.35 1915.64 1812.76 1916.37 1806.48L1917.89 1793.58L1934.9 1795.08L1939.29 1795.37C2034.01 1799.69 2149.82 1779.6 2220.95 1746.56C2277.15 1720.48 2457.25 1625.4 2414.85 1497.03Z" fill="black"/>
<path d="M2252.9 1521.99C1971.27 1580.09 1951.9 1484.73 1951.9 1484.73C2249.25 1043.51 2373.56 483.447 2266.3 346.373C1973.65 -27.5379 1467.06 149.299 1458.61 153.883L1455.89 154.375C1400.25 142.822 1337.98 135.947 1267.99 134.801C1140.57 132.718 1043.9 168.21 970.549 223.835C970.549 223.835 66.8561 -148.456 108.892 692.055C117.831 870.862 365.18 2045.02 660.199 1690.37C768.03 1560.68 872.225 1451.03 872.225 1451.03C923.968 1485.41 985.919 1502.95 1050.86 1496.65L1055.91 1492.37C1054.34 1508.47 1055.06 1524.21 1057.93 1542.86C981.922 1627.77 1004.26 1642.68 852.33 1673.96C698.589 1705.64 788.902 1762.05 847.869 1776.8C919.356 1794.67 1084.73 1819.99 1196.48 1663.56L1192.03 1681.41C1221.8 1705.27 1242.71 1836.55 1239.2 1955.58C1235.7 2074.59 1233.36 2156.31 1256.82 2220.13C1280.29 2283.96 1303.67 2427.57 1503.41 2384.77C1670.29 2349.01 1756.78 2256.33 1768.82 2101.72C1777.35 1991.82 1796.68 2008.07 1797.89 1909.8L1813.39 1863.29C1831.26 1714.3 1816.23 1666.23 1919.04 1688.59L1944.04 1690.79C2019.71 1694.22 2118.76 1678.61 2176.89 1651.59C2302.06 1593.5 2376.31 1496.51 2252.88 1521.99H2252.9Z" fill="#336791"/>
<path d="M1023.45 772.017C998.069 768.485 975.086 771.752 963.457 780.559C956.923 785.511 954.896 791.25 954.347 795.199C952.889 805.663 960.218 817.235 964.726 823.201C977.472 840.095 996.089 851.704 1014.52 854.261C1017.19 854.64 1019.85 854.811 1022.49 854.811C1053.22 854.811 1081.17 830.881 1083.63 813.22C1086.7 791.098 1054.59 776.345 1023.45 772.017ZM1864.2 772.718C1861.78 755.379 1830.93 750.436 1801.65 754.508C1772.41 758.58 1744.05 771.78 1746.42 789.157C1748.31 802.67 1772.72 825.739 1801.6 825.739C1804.04 825.739 1806.51 825.578 1808.99 825.227C1828.27 822.557 1842.42 810.312 1849.14 803.258C1859.37 792.5 1865.29 780.511 1864.2 772.718Z" fill="white"/>
<path d="M2346.61 1515.39C2335.87 1482.92 2301.31 1472.47 2243.88 1484.33C2073.38 1519.52 2012.32 1495.14 1992.27 1480.38C2124.8 1278.48 2233.83 1034.43 2292.64 806.733C2320.5 698.873 2335.89 598.703 2337.15 517.055C2338.54 427.443 2323.28 361.591 2291.8 321.364C2164.89 159.195 1978.62 72.2064 1753.14 69.8201C1598.13 68.0776 1467.17 107.746 1441.78 118.901C1388.31 105.606 1330.03 97.4432 1266.57 96.4015C1150.21 94.517 1049.62 122.377 966.344 179.167C930.17 165.701 836.685 133.608 722.358 115.189C524.706 83.3712 367.642 107.481 255.558 186.884C121.818 281.638 60.0754 451.013 72.0357 690.293C76.0603 770.795 121.932 1018.45 194.318 1255.62C289.602 1567.77 393.182 1744.49 502.159 1780.84C514.914 1785.09 529.621 1788.07 545.842 1788.07C585.596 1788.07 634.337 1770.15 685.047 1709.19C746.899 1634.99 810.881 1562.59 876.913 1492.08C919.753 1515.08 966.818 1527.92 1014.95 1529.2C1015.05 1530.46 1015.17 1531.72 1015.28 1532.97C1007 1542.85 998.884 1552.88 990.947 1563.04C957.594 1605.38 950.653 1614.2 843.295 1636.3C812.755 1642.6 731.647 1659.32 730.454 1716.17C729.166 1778.3 826.335 1804.38 837.405 1807.15C875.985 1816.81 913.153 1821.57 948.598 1821.57C1034.8 1821.57 1110.66 1793.24 1171.29 1738.42C1169.42 1959.88 1178.66 2178.1 1205.25 2244.58C1227.03 2299.02 1280.23 2432.04 1448.28 2432.03C1472.94 2432.03 1500.08 2429.16 1529.93 2422.76C1705.32 2385.16 1781.49 2307.64 1810.95 2136.74C1826.71 2045.41 1853.77 1827.31 1866.5 1710.32C1893.35 1718.7 1927.93 1722.54 1965.3 1722.53C2043.26 1722.53 2133.21 1705.97 2189.62 1679.78C2252.99 1650.35 2367.35 1578.13 2346.61 1515.39ZM1928.94 724.858C1928.36 759.394 1923.61 790.748 1918.57 823.475C1913.14 858.674 1907.54 895.066 1906.13 939.242C1904.73 982.235 1910.1 1026.93 1915.29 1070.16C1925.79 1157.47 1936.55 1247.36 1894.88 1336.05C1887.95 1323.78 1881.79 1311.11 1876.41 1298.09C1871.23 1285.53 1859.98 1265.36 1844.4 1237.44C1783.81 1128.77 1641.9 874.28 1714.55 770.436C1736.18 739.526 1791.1 707.746 1928.94 724.858ZM1761.86 139.754C1963.88 144.214 2123.69 219.792 2236.84 364.375C2323.62 475.275 2228.06 979.886 1951.42 1415.22C1948.64 1411.68 1945.84 1408.15 1943.03 1404.64L1939.53 1400.27C2011.01 1282.21 1997.04 1165.4 1984.59 1061.84C1979.48 1019.34 1974.65 979.195 1975.88 941.487C1977.15 901.525 1982.43 867.244 1987.55 834.1C1993.83 793.258 2000.22 750.994 1998.46 701.174C1999.77 695.947 2000.3 689.773 1999.61 682.443C1995.11 634.669 1940.57 491.686 1829.39 362.273C1768.58 291.487 1679.9 212.273 1558.81 158.845C1610.89 148.049 1682.11 137.983 1761.86 139.754ZM631.382 1664.56C575.511 1731.74 536.932 1718.86 524.242 1714.64C441.572 1687.06 345.644 1512.33 261.07 1235.25C187.888 995.492 145.123 754.403 141.733 686.799C131.051 472.992 182.878 323.987 295.786 243.911C479.536 113.608 781.638 191.6 903.03 231.155C901.288 232.879 899.469 234.489 897.746 236.241C698.541 437.415 703.267 781.127 703.759 802.14C703.74 810.246 704.422 821.723 705.35 837.509C708.778 895.322 715.161 1002.92 698.115 1124.76C682.282 1237.99 717.187 1348.82 793.863 1428.83C801.732 1437.02 810.003 1444.82 818.646 1452.2C784.517 1488.75 710.341 1569.58 631.382 1664.56ZM844.252 1380.54C782.452 1316.05 754.384 1226.35 767.235 1134.42C785.227 1005.71 778.589 893.608 775.019 833.381C774.517 824.953 774.072 817.566 773.816 811.742C802.916 785.937 937.774 713.684 1033.95 735.72C1077.83 745.767 1104.57 775.653 1115.69 827.055C1173.23 1093.18 1123.3 1204.1 1083.19 1293.24C1074.92 1311.6 1067.11 1328.96 1060.44 1346.91L1055.27 1360.8C1042.19 1395.89 1030.01 1428.52 1022.46 1459.51C956.761 1459.32 892.85 1431.25 844.252 1380.53M854.337 1739.43C835.151 1734.64 817.897 1726.32 807.774 1719.41C816.231 1715.44 831.278 1710.02 857.377 1704.64C983.674 1678.65 1003.18 1660.29 1045.78 1606.21C1055.54 1593.81 1066.61 1579.75 1081.94 1562.63L1081.96 1562.61C1104.79 1537.05 1115.24 1541.38 1134.18 1549.24C1149.53 1555.59 1164.48 1574.83 1170.54 1596C1173.41 1606 1176.63 1624.98 1166.09 1639.75C1077.11 1764.34 947.452 1762.74 854.337 1739.43ZM1515.31 2354.51C1360.8 2387.61 1306.1 2308.78 1270.05 2218.66C1246.78 2160.47 1235.34 1898.11 1243.46 1608.36C1243.56 1604.51 1243.01 1600.79 1241.95 1597.28C1241 1590.36 1239.56 1583.52 1237.63 1576.81C1225.57 1534.65 1196.16 1499.38 1160.89 1484.76C1146.87 1478.96 1121.15 1468.3 1090.25 1476.21C1096.84 1449.05 1108.27 1418.38 1120.66 1385.17L1125.86 1371.2C1131.71 1355.45 1139.06 1339.14 1146.83 1321.87C1188.81 1228.61 1246.3 1100.87 1183.9 812.301C1160.53 704.214 1082.48 651.43 964.166 663.693C893.238 671.032 828.342 699.65 795.975 716.061C789.015 719.583 782.651 722.992 776.704 726.307C785.738 617.405 819.867 413.883 947.538 285.114C1027.93 204.053 1134.98 164.015 1265.42 166.174C1522.42 170.379 1687.23 302.273 1780.25 412.187C1860.4 506.894 1903.8 602.301 1921.12 653.759C1790.86 640.511 1702.27 666.222 1657.37 730.426C1559.67 870.085 1710.81 1141.15 1783.46 1271.42C1796.78 1295.29 1808.28 1315.93 1811.89 1324.7C1835.55 1382.03 1866.17 1420.3 1888.53 1448.24C1895.39 1456.8 1902.04 1465.1 1907.09 1472.36C1867.64 1483.73 1796.78 1510.01 1803.24 1641.36C1798.03 1707.27 1760.99 2015.85 1742.18 2124.88C1717.34 2268.91 1664.34 2322.55 1515.31 2354.51ZM2160.24 1616.49C2119.9 1635.21 2052.39 1649.25 1988.26 1652.27C1917.42 1655.59 1881.36 1644.34 1872.88 1637.41C1868.9 1555.56 1899.37 1547.01 1931.61 1537.95C1936.68 1536.53 1941.62 1535.14 1946.39 1533.48C1949.36 1535.89 1952.6 1538.29 1956.16 1540.63C2013.1 1578.21 2114.64 1582.26 2258 1552.67L2259.57 1552.36C2240.24 1570.44 2207.15 1594.7 2160.24 1616.49Z" fill="white"/>
</svg>
