<svg width="2500" height="2247" viewBox="0 0 2500 2247" fill="none" xmlns="http://www.w3.org/2000/svg">
<g clip-path="url(#clip0_184_2)">
<path d="M1542.77 1391.47L1494.82 1474.75C1487.73 1487.07 1477.51 1497.3 1465.19 1504.42C1452.88 1511.54 1438.91 1515.28 1424.69 1515.28H1057.32C1043.1 1515.28 1029.13 1511.54 1016.82 1504.42C1004.51 1497.3 994.286 1487.07 987.187 1474.75L939.229 1391.47H1542.77ZM1677.02 1158.37L1592.47 1305.19H889.541L804.99 1158.37H1677.02ZM1595.58 930.42L1677.16 1072.08H804.854L886.436 930.42H1595.58ZM1424.68 714.932C1438.9 714.929 1452.87 718.675 1465.19 725.792C1477.5 732.908 1487.72 743.144 1494.82 755.469L1545.88 844.131H936.133L987.197 755.469C994.296 743.146 1004.52 732.911 1016.83 725.794C1029.14 718.678 1043.11 714.931 1057.33 714.932H1424.68Z" fill="#00435B"/>
<path d="M522.685 676.289C481.992 478.965 473.252 327.617 499.56 217.725C515.205 152.363 543.799 99.0429 587.295 60.5664C633.213 19.9511 691.26 0.0194885 756.494 0.0194885C864.092 0.0194885 977.217 49.0918 1098.1 142.305C1147.41 180.332 1198.58 226.162 1251.73 279.824C1255.97 274.385 1260.74 269.248 1266.07 264.492C1416.33 130.605 1542.83 47.4023 1651.04 15.332C1715.37 -3.75004 1775.77 -5.56645 1830.77 12.9492C1888.84 32.4804 1935.1 72.8808 1967.74 129.453C2021.61 222.822 2035.81 345.508 2015.73 497.002C2007.55 558.75 1993.55 626.006 1973.78 698.887C1981.24 699.785 1988.72 701.445 1996.12 703.897C2186.76 767.08 2321.76 835.01 2403.49 912.656C2452.12 958.848 2483.87 1010.27 2495.35 1067.21C2507.46 1127.29 2495.64 1187.56 2463.05 1244.09C2409.28 1337.33 2310.41 1410.86 2169.57 1469.1C2113.03 1492.49 2049.03 1513.67 1977.54 1532.72C1980.8 1540.09 1983.34 1547.91 1985.03 1556.11C2025.72 1753.44 2034.45 1904.79 2008.15 2014.68C1992.51 2080.04 1963.91 2133.36 1920.41 2171.84C1874.5 2212.45 1816.45 2232.38 1751.22 2232.38C1643.61 2232.38 1530.5 2183.31 1409.62 2090.1C1359.78 2051.66 1308.04 2005.26 1254.28 1950.86C1248.62 1959.7 1241.77 1967.73 1233.93 1974.71C1083.67 2108.61 957.168 2191.8 848.965 2223.88C784.629 2242.96 724.228 2244.78 669.228 2226.26C611.162 2206.73 564.902 2166.33 532.256 2109.76C478.389 2016.39 464.189 1893.7 484.268 1742.21C492.754 1678.23 507.471 1608.33 528.389 1532.39C520.051 1531.55 511.831 1529.79 503.877 1527.15C313.242 1463.96 178.242 1396.04 96.5136 1318.39C47.8808 1272.2 16.1328 1220.77 4.64841 1163.84C-7.46097 1103.75 4.35544 1043.48 36.9531 986.943C90.7226 893.711 189.59 820.176 330.43 761.943C388.662 737.852 454.785 716.113 528.867 696.621C526.185 690.048 524.116 683.242 522.685 676.289Z" fill="#002B3B"/>
<path d="M1852.02 1575.52C1861.12 1573.91 1870.49 1575.86 1878.19 1580.96C1885.89 1586.07 1891.33 1593.95 1893.38 1602.96L1893.6 1604.05L1895.62 1614.55C1961.15 1959.04 1914.99 2131.3 1757.15 2131.3C1602.72 2131.3 1406.13 1984.32 1167.38 1690.35C1163.14 1685.13 1160.45 1678.82 1159.62 1672.14C1158.78 1665.46 1159.84 1658.68 1162.66 1652.58C1165.48 1646.47 1169.97 1641.27 1175.59 1637.59C1181.22 1633.9 1187.77 1631.86 1194.5 1631.71H1195.62L1208.19 1631.8C1308.66 1632.34 1406.33 1628.84 1501.2 1621.29C1613.18 1612.37 1730.13 1597.12 1852.02 1575.52ZM768.027 1315.11L768.633 1316.13L774.941 1327.14C825.498 1415.03 878.164 1498.45 932.949 1577.4C997.48 1670.37 1070.04 1764.49 1150.62 1859.77C1156.61 1866.84 1159.63 1875.94 1159.07 1885.19C1158.51 1894.43 1154.4 1903.1 1147.61 1909.39L1146.7 1910.21L1138.59 1917.19C871.924 2145.67 698.603 2191.29 618.633 2054.02C540.342 1919.68 568.73 1675.38 703.779 1321.14C706.17 1314.87 710.271 1309.39 715.616 1305.32C720.962 1301.25 727.339 1298.77 734.026 1298.14C740.712 1297.51 747.441 1298.77 753.451 1301.77C759.46 1304.76 764.509 1309.39 768.027 1315.11ZM1987.33 806.768L1988.43 807.129L1998.47 810.586C2327.62 925.088 2452.67 1050.92 2373.62 1188.08C2296.32 1322.22 2071.57 1419.89 1699.39 1481.08C1692.65 1482.19 1685.73 1481.36 1679.44 1478.68C1673.15 1475.99 1667.76 1471.58 1663.89 1465.94C1660.03 1460.3 1657.85 1453.68 1657.61 1446.85C1657.37 1440.01 1659.08 1433.26 1662.55 1427.36C1715.85 1336.68 1763.87 1246.46 1806.58 1156.69C1855.02 1054.88 1900.48 945.596 1942.96 828.857C1946.04 820.372 1952.21 813.357 1960.23 809.206C1968.24 805.054 1977.53 804.068 1986.24 806.445L1987.33 806.768ZM824.668 749.121C828.741 751.514 832.304 754.685 835.152 758.455C837.999 762.224 840.076 766.518 841.264 771.09C842.452 775.663 842.728 780.424 842.075 785.103C841.423 789.782 839.855 794.287 837.461 798.359C784.141 889.033 736.133 979.258 693.418 1069.03C644.98 1170.84 599.521 1280.12 557.041 1396.87C553.887 1405.53 547.523 1412.66 539.265 1416.77C531.006 1420.88 521.484 1421.66 512.666 1418.96L511.572 1418.59L501.533 1415.13C172.383 1300.63 47.3339 1174.79 126.377 1037.65C203.682 903.496 428.428 805.83 800.605 744.639C808.906 743.271 817.422 744.853 824.668 749.121ZM1881.37 185.176C1959.66 319.531 1931.27 563.828 1796.22 918.066C1793.83 924.342 1789.73 929.824 1784.38 933.889C1779.04 937.955 1772.66 940.443 1765.97 941.071C1759.29 941.699 1752.56 940.442 1746.55 937.443C1740.54 934.444 1735.49 929.822 1731.97 924.102L1731.37 923.076L1725.06 912.07C1674.5 824.18 1621.84 740.762 1567.05 661.807C1502.52 568.838 1429.96 474.717 1349.37 379.443C1343.39 372.373 1340.37 363.268 1340.93 354.024C1341.49 344.78 1345.6 336.108 1352.39 329.814L1353.3 329.004L1361.41 322.021C1628.08 93.5351 1801.4 47.9199 1881.37 185.176ZM756.348 103.418C910.781 103.418 1107.37 250.391 1346.11 544.355C1350.35 549.58 1353.05 555.89 1353.88 562.568C1354.72 569.245 1353.66 576.023 1350.84 582.131C1348.01 588.24 1343.53 593.433 1337.9 597.122C1332.27 600.81 1325.72 602.846 1318.99 602.998H1317.88L1305.3 602.92C1204.84 602.373 1107.17 605.879 1012.3 613.428C900.312 622.344 783.369 637.598 661.475 659.199C652.377 660.809 643.01 658.857 635.312 653.749C627.615 648.64 622.177 640.766 620.127 631.758L619.893 630.654L617.871 620.166C552.344 275.664 598.496 103.418 756.348 103.418Z" fill="#FF4154"/>
<path d="M1086.87 719.434H1395.22C1417.38 719.432 1439.14 725.278 1458.31 736.381C1477.49 747.484 1493.39 763.45 1504.41 782.666L1659.25 1052.45C1670.19 1071.52 1675.95 1093.13 1675.95 1115.12C1675.95 1137.11 1670.19 1158.71 1659.25 1177.78L1504.41 1447.57C1493.39 1466.78 1477.48 1482.75 1458.31 1493.85C1439.14 1504.95 1417.38 1510.8 1395.22 1510.8H1086.87C1041.77 1510.8 1000.12 1486.68 977.666 1447.57L822.852 1177.78C811.907 1158.71 806.147 1137.11 806.147 1115.12C806.147 1093.13 811.907 1071.52 822.852 1052.45L977.676 782.666C988.704 763.45 1004.61 747.484 1023.78 736.381C1042.96 725.279 1064.71 719.433 1086.87 719.434ZM1348.23 800.859C1393.35 800.859 1435.03 825.01 1457.46 864.15L1565.43 1052.51C1576.35 1071.57 1582.1 1093.15 1582.1 1115.12C1582.1 1137.08 1576.35 1158.67 1565.43 1177.72L1457.46 1366.08C1446.44 1385.31 1430.53 1401.29 1411.35 1412.4C1392.17 1423.52 1370.4 1429.37 1348.23 1429.37H1133.88C1088.76 1429.37 1047.08 1405.22 1024.65 1366.08L916.68 1177.72C905.756 1158.67 900.009 1137.08 900.009 1115.12C900.009 1093.15 905.756 1071.57 916.68 1052.51L1024.65 864.15C1035.67 844.922 1051.58 828.945 1070.75 817.833C1089.93 806.722 1111.7 800.87 1133.87 800.869L1348.23 800.859ZM1297.58 889.922H1184.53C1162.38 889.921 1140.63 895.762 1121.46 906.856C1102.3 917.949 1086.39 933.902 1075.36 953.105L1018.31 1052.39C1007.34 1071.48 1001.57 1093.11 1001.57 1115.12C1001.57 1137.13 1007.34 1158.76 1018.31 1177.84L1075.36 1277.14C1086.39 1296.34 1102.3 1312.29 1121.46 1323.39C1140.63 1334.48 1162.38 1340.32 1184.53 1340.32H1297.58C1342.66 1340.32 1384.3 1316.22 1406.75 1277.14L1463.8 1177.84C1474.77 1158.76 1480.54 1137.13 1480.54 1115.12C1480.54 1093.11 1474.77 1071.48 1463.8 1052.39L1406.75 953.096C1395.72 933.893 1379.81 917.94 1360.65 906.846C1341.48 895.753 1319.72 889.921 1297.58 889.922ZM1248.81 975.156C1293.85 975.156 1335.46 999.219 1357.92 1038.24L1366.02 1052.3C1377.01 1071.41 1382.8 1093.06 1382.8 1115.11C1382.8 1137.15 1377.01 1158.81 1366.02 1177.91L1357.92 1191.97C1346.88 1211.15 1330.98 1227.08 1311.83 1238.15C1292.67 1249.23 1270.94 1255.06 1248.81 1255.06H1233.3C1211.17 1255.06 1189.44 1249.23 1170.28 1238.15C1151.13 1227.08 1135.23 1211.15 1124.19 1191.97L1116.09 1177.91C1105.1 1158.81 1099.31 1137.15 1099.31 1115.11C1099.31 1093.06 1105.1 1071.41 1116.09 1052.3L1124.19 1038.24C1135.23 1019.07 1151.13 1003.14 1170.28 992.063C1189.44 980.987 1211.17 975.156 1233.3 975.156H1248.81ZM1241.07 1059.13C1231.24 1059.13 1221.58 1061.71 1213.06 1066.62C1204.54 1071.54 1197.46 1078.61 1192.54 1087.12C1187.62 1095.63 1185.04 1105.28 1185.04 1115.11C1185.04 1124.93 1187.62 1134.59 1192.54 1143.1C1197.46 1151.61 1204.53 1158.68 1213.05 1163.6C1221.57 1168.51 1231.23 1171.1 1241.06 1171.1C1250.89 1171.1 1260.55 1168.51 1269.07 1163.6C1277.59 1158.68 1284.66 1151.61 1289.58 1143.1C1294.5 1134.59 1297.08 1124.93 1297.08 1115.11C1297.08 1105.28 1294.5 1095.63 1289.58 1087.12C1284.66 1078.61 1277.59 1071.54 1269.08 1066.63C1260.56 1061.72 1250.9 1059.13 1241.07 1059.13ZM786.885 1115.11H887.666Z" fill="#FFD94C"/>
</g>
<defs>
<clipPath id="clip0_184_2">
<rect width="2500" height="2246.09" fill="white"/>
</clipPath>
</defs>
</svg>
