<svg width="2500" height="2500" viewBox="0 0 2500 2500" fill="none" xmlns="http://www.w3.org/2000/svg">
<g clip-path="url(#clip0_184_7)">
<path d="M0 742.188C0 332.031 332.031 0 742.188 0H1757.81C2167.97 0 2500 332.031 2500 742.188V1757.81C2500 2167.97 2167.97 2500 1757.81 2500H742.188C332.031 2500 0 2167.97 0 1757.81V742.188Z" fill="#398CCB"/>
<path d="M1248.05 367.188L1593.75 566.406V675.781L2013.67 919.922V1333.98L2126.95 1398.44V1800.78L1781.25 2000L1626.95 1910.16L1251.95 2126.95L878.906 1912.11L728.516 2000L380.859 1798.83V1398.44L490.234 1335.94V919.922L900.391 681.641V566.406L1248.05 367.188ZM1595.7 781.25V968.75L1248.05 1167.97L902.344 968.75V787.109L580.078 972.656V1285.16L728.516 1199.22L1076.17 1400.39V1800.78L970.703 1861.33L1253.91 2023.44L1537.11 1859.37L1433.59 1800.78V1400.39L1781.25 1199.22L1925.78 1283.2V972.656L1595.7 781.25ZM1736.33 1871.09V1625L1525.39 1503.91V1748.05L1736.33 1871.09ZM2037.11 1503.91L1826.17 1626.95V1871.09L2037.11 1748.05V1503.91ZM683.594 1871.09V1626.95L470.703 1503.91V1748.05L683.594 1871.09ZM986.328 1505.86L775.391 1626.95V1871.09L986.328 1750V1505.86ZM1781.25 1550.78L1994.14 1427.73L1781.25 1306.64L1570.31 1427.73L1781.25 1550.78ZM728.516 1306.64L517.578 1427.73L728.516 1550.78L939.453 1427.73L728.516 1306.64ZM1203.12 1041.02V796.875L992.187 675.781V919.922L1203.12 1041.02ZM1505.86 673.828L1292.97 796.875V1041.02L1505.86 917.969V673.828ZM1248.05 718.75L1460.94 595.703L1248.05 474.609L1037.11 595.703L1248.05 718.75Z" fill="white"/>
</g>
<defs>
<clipPath id="clip0_184_7">
<rect width="2500" height="2500" fill="white"/>
</clipPath>
</defs>
</svg>
