<svg width="2500" height="2500" viewBox="0 0 2500 2500" fill="none" xmlns="http://www.w3.org/2000/svg">
<path d="M1455.43 2458.44C1391.62 2538.85 1261.99 2494.8 1260.57 2392.09L1237.99 890.02H2248.05C2430.96 890.02 2532.95 1101.29 2419.2 1244.49L1455.43 2458.44Z" fill="url(#paint0_linear_37_4)"/>
<path d="M1455.43 2458.44C1391.62 2538.85 1261.99 2494.8 1260.57 2392.09L1237.99 890.02H2248.05C2430.96 890.02 2532.95 1101.29 2419.2 1244.49L1455.43 2458.44Z" fill="url(#paint1_linear_37_4)" fill-opacity="0.2"/>
<path d="M1044.61 41.5626C1108.42 -38.8475 1238.07 5.19543 1239.47 107.891L1249.39 1609.98H251.992C69.0821 1609.98 -32.9101 1398.71 80.8204 1255.51L1044.61 41.5626Z" fill="#3ECF8E"/>
<defs>
<linearGradient id="paint0_linear_37_4" x1="1238.08" y1="1223.17" x2="2135.74" y2="1599.64" gradientUnits="userSpaceOnUse">
<stop stop-color="#249361"/>
<stop offset="1" stop-color="#3ECF8E"/>
</linearGradient>
<linearGradient id="paint1_linear_37_4" x1="840.098" y1="678.262" x2="1249.47" y2="1448.92" gradientUnits="userSpaceOnUse">
<stop/>
<stop offset="1" stop-opacity="0"/>
</linearGradient>
</defs>
</svg>
